<?xml version="1.0" encoding="utf-8"?>
<!-- Generator: Adobe Illustrator 19.0.0, SVG Export Plug-In . SVG Version: 6.00 Build 0)  -->
<svg version="1.1" id="Layer_1" xmlns="http://www.w3.org/2000/svg" xmlns:xlink="http://www.w3.org/1999/xlink" x="0px" y="0px"
	 viewBox="115 262.3 841.9 552.7" style="enable-background:new 115 262.3 841.9 552.7;" xml:space="preserve">
<style type="text/css">
	.st0{fill:#00548E;}
</style>
<g>
	<path class="st0" d="M517.4,764.5l-0.2,0.1c-13.4-31.8-49.8-48.5-52.2-49.6c-1.2-0.2-2.4-0.2-3.6-0.2c-2.7,0-5.3,0.5-7.8,1.5
		c-4.5,1.7-8.2,4.9-11.5,8.3c-45.8,47.3-93.1,93.1-139.8,139.5c-48.7,48.4-68.1,68.7-116.8,117.2c-11,11-22.3,22.3-33.5,33.1
		c-7.6,7.3-14.8,14.3-19.3,23.8c-6.2,12.9-5.6,26.1-0.3,38c5.7,12.8,17.4,22.9,30.6,27.2c24.9,8.1,47.9-0.5,66.6-20
		c11.3-11.8,22.9-23.7,34.1-35.5c11.8-12.4,23.6-24.9,35.4-37.3c47.1-49.6,64.9-71.2,112.2-120.7c23.5-24.6,46.9-49.1,70.3-73.7
		c9.4-9.8,19-19.3,28.4-29.1c3.5-3.7,6.6-8,7.7-13.1c0.5-2.6,0.5-5.4,0-8C517.7,765.3,517.5,764.9,517.4,764.5z"/>
	<path class="st0" d="M535.5,731.2c-0.5-0.8-0.9-1.5-1.4-2.3c-9.6-15.2-23.5-25.6-33.1-31.5c-1.7-0.8-3.6-2.3-5-2.7
		c-2.1-0.5-4.1-0.2-6,0.9c-3.8,2.3-5.8,6.5-8.9,9.4c-2.7,2.5-7.9,1.5-10,4.4c-0.2,0.3-0.4,0.6-0.5,0.9c8.3,4,38.3,20.1,51.3,48.9
		c0.8-0.4,1.6-0.9,2.3-1.6c2.3-2.5,0.7-5.8,3.2-8.3c1.5-1.5,3.2-2.8,4.8-4.2c3.2-2.8,6.3-6.4,5.1-11
		C536.7,733.3,536.1,732.2,535.5,731.2z"/>
	<path class="st0" d="M500.1,582.6c28.2,55.2,76.5,91.1,147.7,109.6c28.1,7.3,71.2,9.5,100.3,5.1c15.7-2.4,28-5.1,38.8-8.5
		c58-18.3,100.8-51.1,127.3-97.4c9.1-16,21-49.9,19.6-81.7c-0.2-3.9-0.5-7.8-1.1-11.5c-0.2-1-0.3-2-0.5-3.1h0.1
		c-1-6.7-2.3-13.4-4-20.1c-11.2-44.3-41.5-84.3-80.6-109.4c-42.9-27.5-89.4-41.4-145-41.7c-53.4-0.3-106.1,17.6-148.5,49.8
		c-36.4,27.6-63.9,70.7-71.4,116.2c0,0.3-0.1,0.5-0.1,0.8l0.3,0.1C477,521.9,487.9,558.7,500.1,582.6z M496.1,486.2
		c2.8-13.3,5.6-24.3,10-34.5c23.1-53.2,68.2-90.1,134.1-109.7c12.5-3.7,24.6-5.8,41.8-7.1c3.5-0.2,7-0.2,10.4-0.3
		c3.4-0.1,6.7-0.1,10.1-0.3c92.5,0.1,166.3,40.9,202.7,112c21.1,41.2,20.9,99.6-0.5,136c-10,17.1-22.1,32.2-36.1,45.4
		c-0.7,0.7-1.5,1.4-2.2,2c-7.2,6.6-14.9,12.6-23,18.1l-0.1-0.2c-19.7,13.5-42,23.8-67.9,31.6c-8.9,2.7-17.9,3.6-27.6,5.5
		c-15.8,3.2-38.7,4.9-56.4,2.1c-10-1.6-19-1.3-28.1-3.5c-20.2-4.7-39.5-9.9-56.7-18.2c-26-12.5-48.7-28.5-66.9-49l-0.3,0.3
		c-10.8-12.6-24.2-28.1-31-43.5C500.6,555.5,488.8,521.1,496.1,486.2z"/>
	<path class="st0" d="M501.9,510.8c4.3-17.2,10.6-31.8,18.2-45.4c7.2-12.9,19.4-30.3,30.4-39.2c6.9-5.6,13.2-12.1,20.5-17.3
		c20.1-14.3,42.8-25.3,69.3-33.4c10.6-3.2,22.1-4.7,34.1-6.9c6.7-0.5,13.4-1.1,20-1.6c91,0.1,152.9,34,190.9,88
		c6.5,9.2,20.3,31.3,25.1,52.3c-0.1-1.5,0.9,2.9,1.4,5.8c1.3,7.6,1.4,18.2,0,26c-3.7,21.3-8.5,36.8-15.7,50.7c2-3,3.9-6.1,5.8-9.2
		c20.8-35.5,21-92.6,0.4-132.9c-35.8-69.9-108.6-110-199.7-110.1c-3.4,0.2-6.7,0.2-10.1,0.3c-3.4,0.1-6.8,0.1-10.3,0.3
		c-16.9,1.3-28.8,3.3-41.1,7c-64.9,19.3-109.3,55.6-132,107.9c-4.3,9.9-7.1,20.7-9.8,33.9c-5.8,27.6,0.7,55,7.4,73.4
		c-3.2-10.1-5.1-21-5.5-35.4C501,520.5,500.8,514.9,501.9,510.8z"/>
	<path class="st0" d="M787.8,691.8c-10.9,3.4-23.4,6.2-39.3,8.6c-10.3,1.6-22.3,2.3-34.8,2.3c-23.3,0-48.3-2.6-66.8-7.4
		c-72.2-18.7-121.2-55.1-149.8-111.2c-6.5-12.8-12.7-29.2-16.2-46.6c3.7,44.2,21.5,87.9,49.8,121.2c0.9,1,1.7,2,2.6,3
		c-0.4,0.6-0.5,1.2-0.3,1.9c0.3,1,1,2,1.7,2.8c0.9,1.1-5.9,6.5-7.1,7.6c-2.3,2.2-5,2.4-7.5,4.2c-2.1,1.6-2.3,4.4-3.5,6.6
		c-1.8,3.2-6.3,2.6-8.5,5.5c-1.3,1.8-2,3.9-3.1,5.7c9.3,6,21.5,15.7,30.6,29.4c2-1.3,4.5-1.9,6.3-3.5c1.8-1.6,2.1-4.2,2.9-6.3
		c1-2.6,3-3.2,5.5-4.1c3.8-1.3,3.5-4.3,5.1-7.3c1.1-2.2,3.2-4.1,5-5.7c1-0.8,2-1.6,3.1-2.3c1.3-0.8,2,0.2,3.5,0.3
		c1.3,0.1,2.7-0.2,3.6-1.3c1.6,1,3.1,1.9,4.7,2.9c13.2,8.1,27.1,15.4,41.5,21c26.7,10.3,54.4,16.9,83,17.6
		c27.5,0.7,54.4-3.2,80.7-11.2c24.4-7.4,47.8-18.3,68.4-33.4c20.7-15.3,37.6-34.6,51.3-56.3c15.6-24.7,26.2-52,31-80.2
		c-4.1,15.5-9.6,28.9-14.5,37.3C890.1,639.9,846.6,673.2,787.8,691.8z"/>
</g>
</svg>
