<?xml version="1.0" encoding="utf-8"?>
<!-- Generator: Adobe Illustrator 15.0.0, SVG Export Plug-In  -->
<!DOCTYPE svg PUBLIC "-//W3C//DTD SVG 1.0//EN" "http://www.w3.org/TR/2001/REC-SVG-20010904/DTD/svg10.dtd" [
	<!ENTITY ns_flows "http://ns.adobe.com/Flows/1.0/">
]>
<svg version="1.0"
	 xmlns="http://www.w3.org/2000/svg" xmlns:xlink="http://www.w3.org/1999/xlink" xmlns:a="http://ns.adobe.com/AdobeSVGViewerExtensions/3.0/"
	 x="0px" y="0px" width="280px" height="50px" viewBox="-2 -2 280 50" overflow="visible" enable-background="new -2 -2 280 50"
	 xml:space="preserve">
<defs>
</defs>
<path fill="#FFFFFF" d="M40,20.3C40,32.7,29.5,43,18.8,43l1.2-3.3c-11.1,0-20-8.2-20-19.4S9,0,20,0C31.1,0,40,9.1,40,20.3"/>
<path fill="#FFFFFF" d="M192.3,32.1V20.2c0-2.101-0.6-3.7-1.9-4.8c-1.3-1-3.1-1.601-5.5-1.601c-2.5,0-4.7,0.5-6.8,1.601l1.6,3.3
	c1.9-0.9,3.6-1.3,5-1.3c1.8,0,2.8,0.899,2.8,2.699V20.9l-3.1,0.1c-2.7,0.1-4.6,0.6-6,1.5c-1.3,0.9-2,2.3-2,4.2
	c0,1.8,0.5,3.2,1.5,4.2s2.3,1.5,4,1.5c1.4,0,2.5-0.2,3.4-0.601c0.9-0.399,1.7-1.1,2.5-2.1h0.2l0.9,2.399H192.3L192.3,32.1z
	 M187.5,25.3c0,1.101-0.3,1.9-1,2.601c-0.7,0.6-1.6,1-2.7,1c-1.6,0-2.3-0.7-2.3-2.101c0-1,0.3-1.7,1-2.1c0.7-0.5,1.7-0.7,3.1-0.8
	l1.9-0.101V25.3L187.5,25.3z M206.6,29.8h0.2l0.9,2.3h3.7V7.3h-4.9V13c0,1,0.1,2.2,0.4,3.6h-0.2c-1.2-1.699-2.9-2.6-5.1-2.6
	c-2.1,0-3.8,0.8-5,2.4c-1.2,1.6-1.8,3.899-1.8,6.8c0,2.899,0.6,5.1,1.8,6.8c1.2,1.6,2.8,2.4,4.9,2.4
	C203.9,32.4,205.5,31.6,206.6,29.8 M200.7,27.3c-0.6-0.899-0.9-2.2-0.9-3.899c0-1.801,0.3-3.101,0.9-4c0.6-0.9,1.4-1.4,2.5-1.4
	c1.3,0,2.3,0.4,2.9,1.2c0.6,0.8,0.9,2.2,0.9,4.1v0.5c-0.1,1.7-0.4,3-0.9,3.7c-0.6,0.7-1.5,1.1-2.7,1.1S201.3,28.1,200.7,27.3
	 M225.1,32.1l6.8-17.8h-5.1l-3.4,10.2c-0.4,1.4-0.7,2.6-0.7,3.7h-0.1c-0.1-1.101-0.3-2.4-0.7-3.7l-3.4-10.2h-5.1l6.8,17.8H225.1z
	 M236.2,12.1c0.9,0,1.5-0.199,2-0.6s0.7-1,0.7-1.8c0-1.601-0.9-2.4-2.6-2.4c-1.8,0-2.6,0.8-2.6,2.4
	C233.5,11.3,234.4,12.1,236.2,12.1 M238.6,14.3h-4.8v17.8h4.8V14.3z M253.2,32.2c0.8-0.2,1.6-0.5,2.4-1V27c-0.8,0.5-1.6,0.9-2.4,1.2
	c-0.8,0.3-1.7,0.399-2.6,0.399c-2.5,0-3.8-1.699-3.8-5.199c0-3.601,1.3-5.4,3.8-5.4c0.7,0,1.3,0.1,2,0.3c0.7,0.2,1.4,0.4,2.1,0.8
	l1.4-3.8c-1.6-0.8-3.5-1.2-5.5-1.2c-2.8,0-5,0.801-6.5,2.4s-2.3,3.9-2.3,6.9c0,6.1,2.8,9.1,8.3,9.1
	C251.4,32.4,252.4,32.4,253.2,32.2 M268.9,18.4c0.6,0.699,0.9,1.6,0.9,2.8H263c0.1-1.2,0.4-2.101,1-2.8c0.6-0.7,1.4-1,2.4-1
	S268.3,17.8,268.9,18.4 M270.6,32.1c1-0.199,1.9-0.5,2.7-0.899v-3.8c-1,0.5-2,0.8-3,1.1c-1,0.2-2,0.3-3,0.3
	c-1.4,0-2.4-0.399-3.2-1.2c-0.8-0.8-1.2-1.899-1.2-3.199h11.4V22c0-2.5-0.7-4.5-2.1-5.9c-1.4-1.399-3.4-2.199-5.9-2.199
	c-2.6,0-4.7,0.8-6.2,2.399c-1.5,1.601-2.2,3.9-2.2,6.9c0,2.899,0.8,5.1,2.4,6.7c1.6,1.6,3.8,2.399,6.7,2.399
	C268.5,32.4,269.7,32.3,270.6,32.1"/>
<path fill="#FFFFFF" d="M61.9,32.2c0.8-0.2,1.6-0.5,2.4-1V27c-0.8,0.5-1.6,0.9-2.4,1.2S60.2,28.6,59.3,28.6
	c-2.5,0-3.8-1.699-3.8-5.199c0-3.601,1.3-5.4,3.8-5.4c0.7,0,1.3,0.1,2,0.3c0.7,0.2,1.4,0.5,2.1,0.8l1.4-3.8
	c-1.6-0.8-3.5-1.2-5.5-1.2c-2.8,0-5,0.801-6.5,2.4s-2.3,3.9-2.3,6.9c0,6.1,2.8,9.1,8.3,9.1C60.1,32.4,61.1,32.4,61.9,32.2
	 M70.2,12.1c0.9,0,1.5-0.199,2-0.6c0.4-0.4,0.7-1,0.7-1.8c0-1.601-0.9-2.4-2.6-2.4c-1.8,0-2.6,0.8-2.6,2.4
	C67.5,11.3,68.4,12.1,70.2,12.1 M72.6,14.3h-4.8v17.8h4.8V14.3z M82.9,28.1c-0.4-0.3-0.6-0.8-0.6-1.5V18h5v-3.7h-5v-3.8h-3.1
	l-1.4,3.8L75.1,15.9V18h2.3v8.6c0,2,0.4,3.4,1.3,4.4c0.9,1,2.3,1.5,4.2,1.5c1.8,0,3.2-0.3,4.4-0.8V28c-1.2,0.4-2.2,0.6-3,0.6
	C83.8,28.6,83.3,28.4,82.9,28.1 M92.9,12.1c0.9,0,1.5-0.199,2-0.6c0.4-0.4,0.7-1,0.7-1.8c0-1.601-0.9-2.4-2.6-2.4
	c-1.8,0-2.6,0.8-2.6,2.4C90.3,11.3,91.1,12.1,92.9,12.1 M95.3,14.3h-4.8v17.8h4.8V14.3z M112.1,28.4h-8.3l8-11v-3.2H98.6v3.7h7.7
	L98.1,29.1V32h14V28.4L112.1,28.4z M124.7,18.4c0.6,0.699,0.9,1.6,0.9,2.8h-6.8c0.1-1.2,0.4-2.101,1-2.8c0.6-0.7,1.4-1,2.4-1
	C123.3,17.4,124.1,17.8,124.7,18.4 M126.5,32.1c1-0.199,1.9-0.5,2.7-0.899v-3.8c-1,0.5-2,0.8-3,1.1c-1,0.2-2,0.3-3,0.3
	c-1.4,0-2.4-0.399-3.2-1.2c-0.8-0.8-1.2-1.899-1.2-3.199h11.4V22c0-2.5-0.7-4.5-2.1-5.9c-1.4-1.399-3.3-2.199-5.9-2.199
	c-2.6,0-4.7,0.8-6.2,2.399c-1.5,1.601-2.2,3.9-2.2,6.9c0,2.899,0.8,5.1,2.4,6.7c1.6,1.6,3.8,2.399,6.7,2.399
	C124.3,32.4,125.5,32.3,126.5,32.1 M149.9,20.5c0-2.1-0.5-3.7-1.6-4.9c-1.1-1.1-2.6-1.699-4.7-1.699c-1.2,0-2.3,0.199-3.2,0.699
	c-0.9,0.4-1.7,1.101-2.2,2h-0.3l-0.6-2.3h-3.7v17.8h4.8V23.7c0-2.101,0.3-3.601,0.9-4.5c0.6-0.9,1.6-1.4,2.9-1.4c1,0,1.7,0.3,2.2,1
	c0.5,0.601,0.7,1.601,0.7,2.9V32.1h4.8V20.5L149.9,20.5z M166.1,24.6c-0.3-0.6-0.8-1.199-1.4-1.699c-0.6-0.5-1.7-1-3-1.601
	c-1.6-0.6-2.6-1.1-3-1.399c-0.5-0.301-0.7-0.7-0.7-1.101c0-0.8,0.7-1.2,2.1-1.2c0.8,0,1.6,0.101,2.4,0.4c0.8,0.2,1.6,0.6,2.5,0.9
	l1.5-3.5c-2-0.9-4.1-1.4-6.2-1.4c-2.2,0-4,0.4-5.2,1.3c-1.2,0.9-1.8,2.101-1.8,3.7c0,0.9,0.1,1.7,0.4,2.3c0.3,0.601,0.8,1.2,1.4,1.7
	c0.6,0.5,1.6,1,3,1.6c1,0.4,1.7,0.801,2.3,1.101s1,0.6,1.2,0.8c0.2,0.2,0.3,0.6,0.3,0.9c0,1-0.9,1.5-2.6,1.5c-0.9,0-1.9-0.101-3-0.4
	s-2.1-0.6-3-1.1v4c0.8,0.3,1.6,0.6,2.6,0.8c0.9,0.2,2,0.3,3.3,0.3c2.5,0,4.4-0.5,5.7-1.4c1.3-1,1.9-2.3,1.9-4.199
	C166.6,26,166.4,25.2,166.1,24.6"/>
</svg>
