<?xml version="1.0" encoding="utf-8"?>
<!-- Generator: Adobe Illustrator 19.1.0, SVG Export Plug-In . SVG Version: 6.00 Build 0)  -->
<svg version="1.1" id="Layer_1" xmlns="http://www.w3.org/2000/svg" xmlns:xlink="http://www.w3.org/1999/xlink" x="0px" y="0px"
	 viewBox="-165 367 274.3 43" style="enable-background:new -165 367 274.3 43;" width="auto" height="43px" xml:space="preserve">
<style type="text/css">
	.st0{fill:#FFFFFF;}
</style>
<path class="st0" d="M-125,387.3c0,12.4-10.5,22.7-21.2,22.7c0,0,1.2-3.3,1.2-3.3c-11.1,0-20-8.2-20-19.4c0-11.2,9-20.3,20-20.3
	C-133.9,367-125,376.1-125,387.3"/>
<path class="st0" d="M27.3,399.1v-11.9c0-2.1-0.6-3.7-1.9-4.8c-1.3-1-3.1-1.6-5.5-1.6c-2.5,0-4.7,0.5-6.8,1.6l1.6,3.3
	c1.9-0.9,3.6-1.3,5-1.3c1.8,0,2.8,0.9,2.8,2.7v0.8l-3.1,0.1c-2.7,0.1-4.6,0.6-6,1.5c-1.3,0.9-2,2.3-2,4.2c0,1.8,0.5,3.2,1.5,4.2
	c1,1,2.3,1.5,4,1.5c1.4,0,2.5-0.2,3.4-0.6c0.9-0.4,1.7-1.1,2.5-2.1H23l0.9,2.4L27.3,399.1L27.3,399.1z M22.5,392.3
	c0,1.1-0.3,1.9-1,2.6c-0.7,0.6-1.6,1-2.7,1c-1.6,0-2.3-0.7-2.3-2.1c0-1,0.3-1.7,1-2.1c0.7-0.5,1.7-0.7,3.1-0.8l1.9-0.1V392.3
	L22.5,392.3z M41.6,396.8h0.2l0.9,2.3h3.7v-24.8h-4.9v5.7c0,1,0.1,2.2,0.4,3.6h-0.2c-1.2-1.7-2.9-2.6-5.1-2.6c-2.1,0-3.8,0.8-5,2.4
	c-1.2,1.6-1.8,3.9-1.8,6.8c0,2.9,0.6,5.1,1.8,6.8c1.2,1.6,2.8,2.4,4.9,2.4C38.9,399.4,40.5,398.6,41.6,396.8 M35.7,394.3
	c-0.6-0.9-0.9-2.2-0.9-3.9c0-1.8,0.3-3.1,0.9-4c0.6-0.9,1.4-1.4,2.5-1.4c1.3,0,2.3,0.4,2.9,1.2c0.6,0.8,0.9,2.2,0.9,4.1v0.5
	c-0.1,1.7-0.4,3-0.9,3.7c-0.6,0.7-1.5,1.1-2.7,1.1C37.2,395.6,36.3,395.1,35.7,394.3 M60.1,399.1l6.8-17.8h-5.1l-3.4,10.2
	c-0.4,1.4-0.7,2.6-0.7,3.7h-0.1c-0.1-1.1-0.3-2.4-0.7-3.7l-3.4-10.2h-5.1l6.8,17.8H60.1z M71.2,379.1c0.9,0,1.5-0.2,2-0.6
	s0.7-1,0.7-1.8c0-1.6-0.9-2.4-2.6-2.4c-1.8,0-2.6,0.8-2.6,2.4C68.5,378.3,69.4,379.1,71.2,379.1 M73.6,381.3h-4.8v17.8h4.8V381.3z
	 M88.2,399.2c0.8-0.2,1.6-0.5,2.4-1V394c-0.8,0.5-1.6,0.9-2.4,1.2c-0.8,0.3-1.7,0.4-2.6,0.4c-2.5,0-3.8-1.7-3.8-5.2
	c0-3.6,1.3-5.4,3.8-5.4c0.7,0,1.3,0.1,2,0.3c0.7,0.2,1.4,0.4,2.1,0.8l1.4-3.8c-1.6-0.8-3.5-1.2-5.5-1.2c-2.8,0-5,0.8-6.5,2.4
	c-1.5,1.6-2.3,3.9-2.3,6.9c0,6.1,2.8,9.1,8.3,9.1C86.4,399.4,87.4,399.4,88.2,399.2 M103.9,385.4c0.6,0.7,0.9,1.6,0.9,2.8H98
	c0.1-1.2,0.4-2.1,1-2.8c0.6-0.7,1.4-1,2.4-1C102.4,384.4,103.3,384.8,103.9,385.4 M105.6,399.1c1-0.2,1.9-0.5,2.7-0.9v-3.8
	c-1,0.5-2,0.8-3,1.1c-1,0.2-2,0.3-3,0.3c-1.4,0-2.4-0.4-3.2-1.2c-0.8-0.8-1.2-1.9-1.2-3.2h11.4v-2.4c0-2.5-0.7-4.5-2.1-5.9
	c-1.4-1.4-3.4-2.2-5.9-2.2c-2.6,0-4.7,0.8-6.2,2.4c-1.5,1.6-2.2,3.9-2.2,6.9c0,2.9,0.8,5.1,2.4,6.7c1.6,1.6,3.8,2.4,6.7,2.4
	C103.5,399.4,104.7,399.3,105.6,399.1"/>
<path class="st0" d="M-103.1,399.2c0.8-0.2,1.6-0.5,2.4-1V394c-0.8,0.5-1.6,0.9-2.4,1.2c-0.8,0.3-1.7,0.4-2.6,0.4
	c-2.5,0-3.8-1.7-3.8-5.2c0-3.6,1.3-5.4,3.8-5.4c0.7,0,1.3,0.1,2,0.3c0.7,0.2,1.4,0.5,2.1,0.8l1.4-3.8c-1.6-0.8-3.5-1.2-5.5-1.2
	c-2.8,0-5,0.8-6.5,2.4c-1.5,1.6-2.3,3.9-2.3,6.9c0,6.1,2.8,9.1,8.3,9.1C-104.9,399.4-103.9,399.4-103.1,399.2 M-94.8,379.1
	c0.9,0,1.5-0.2,2-0.6c0.4-0.4,0.7-1,0.7-1.8c0-1.6-0.9-2.4-2.6-2.4c-1.8,0-2.6,0.8-2.6,2.4C-97.5,378.3-96.6,379.1-94.8,379.1
	 M-92.4,381.3h-4.8v17.8h4.8C-92.4,399.1-92.4,381.3-92.4,381.3z M-82.1,395.1c-0.4-0.3-0.6-0.8-0.6-1.5V385h5v-3.7h-5v-3.8h-3.1
	l-1.4,3.8l-2.7,1.6v2.1h2.3v8.6c0,2,0.4,3.4,1.3,4.4c0.9,1,2.3,1.5,4.2,1.5c1.8,0,3.2-0.3,4.4-0.8V395c-1.2,0.4-2.2,0.6-3,0.6
	C-81.2,395.6-81.7,395.4-82.1,395.1 M-72.1,379.1c0.9,0,1.5-0.2,2-0.6c0.4-0.4,0.7-1,0.7-1.8c0-1.6-0.9-2.4-2.6-2.4
	c-1.8,0-2.6,0.8-2.6,2.4C-74.7,378.3-73.9,379.1-72.1,379.1 M-69.7,381.3h-4.8v17.8h4.8C-69.7,399.1-69.7,381.3-69.7,381.3z
	 M-52.9,395.4h-8.3l8-11v-3.2h-13.2v3.7h7.7l-8.2,11.2v2.9h14L-52.9,395.4L-52.9,395.4z M-40.3,385.4c0.6,0.7,0.9,1.6,0.9,2.8h-6.8
	c0.1-1.2,0.4-2.1,1-2.8c0.6-0.7,1.4-1,2.4-1C-41.7,384.4-40.9,384.8-40.3,385.4 M-38.5,399.1c1-0.2,1.9-0.5,2.7-0.9v-3.8
	c-1,0.5-2,0.8-3,1.1c-1,0.2-2,0.3-3,0.3c-1.4,0-2.4-0.4-3.2-1.2s-1.2-1.9-1.2-3.2h11.4v-2.4c0-2.5-0.7-4.5-2.1-5.9s-3.3-2.2-5.9-2.2
	c-2.6,0-4.7,0.8-6.2,2.4c-1.5,1.6-2.2,3.9-2.2,6.9c0,2.9,0.8,5.1,2.4,6.7c1.6,1.6,3.8,2.4,6.7,2.4
	C-40.7,399.4-39.5,399.3-38.5,399.1 M-15.1,387.5c0-2.1-0.5-3.7-1.6-4.9c-1.1-1.1-2.6-1.7-4.7-1.7c-1.2,0-2.3,0.2-3.2,0.7
	c-0.9,0.4-1.7,1.1-2.2,2h-0.3l-0.6-2.3h-3.7v17.8h4.8v-8.4c0-2.1,0.3-3.6,0.9-4.5c0.6-0.9,1.6-1.4,2.9-1.4c1,0,1.7,0.3,2.2,1
	c0.5,0.6,0.7,1.6,0.7,2.9v10.4h4.8L-15.1,387.5L-15.1,387.5z M1.1,391.6c-0.3-0.6-0.8-1.2-1.4-1.7c-0.6-0.5-1.7-1-3-1.6
	c-1.6-0.6-2.6-1.1-3-1.4c-0.5-0.3-0.7-0.7-0.7-1.1c0-0.8,0.7-1.2,2.1-1.2c0.8,0,1.6,0.1,2.4,0.4c0.8,0.2,1.6,0.6,2.5,0.9l1.5-3.5
	c-2-0.9-4.1-1.4-6.2-1.4c-2.2,0-4,0.4-5.2,1.3c-1.2,0.9-1.8,2.1-1.8,3.7c0,0.9,0.1,1.7,0.4,2.3c0.3,0.6,0.8,1.2,1.4,1.7
	c0.6,0.5,1.6,1,3,1.6c1,0.4,1.7,0.8,2.3,1.1c0.6,0.3,1,0.6,1.2,0.8c0.2,0.2,0.3,0.6,0.3,0.9c0,1-0.9,1.5-2.6,1.5
	c-0.9,0-1.9-0.1-3-0.4c-1.1-0.3-2.1-0.6-3-1.1v4c0.8,0.3,1.6,0.6,2.6,0.8c0.9,0.2,2,0.3,3.3,0.3c2.5,0,4.4-0.5,5.7-1.4
	c1.3-1,1.9-2.3,1.9-4.2C1.6,393,1.4,392.2,1.1,391.6"/>
</svg>
