<?xml version="1.0" encoding="utf-8"?>
<!-- Generator: Adobe Illustrator 20.0.0, SVG Export Plug-In . SVG Version: 6.00 Build 0)  -->
<svg version="1.1" id="Layer_1" xmlns="http://www.w3.org/2000/svg" xmlns:xlink="http://www.w3.org/1999/xlink" x="0px" y="0px"
	 width="826px" height="196px" viewBox="0 0 826 196" style="enable-background:new 0 0 826 196;" xml:space="preserve">
<style type="text/css">
	.st0{fill:#FAE1E1;}
	.st1{fill:#E13135;}
	.st2{fill:#FFFFFF;}
	.st3{font-family:'OpenSans';}
	.st4{font-size:15.8545px;}
	.st5{fill:#EFEEEE;}
	.st6{fill:#010202;}
	.st7{fill:#557D2E;}
</style>
<g>
	<rect x="37.7" y="27.9" class="st0" width="355.8" height="140.2"/>
	<path class="st1" d="M393,28.4v139.2H38.2V28.4H393 M394,27.4H37.2v141.2H394V27.4L394,27.4z"/>
</g>
<rect x="32.8" y="27.4" transform="matrix(1 -1.689129e-03 1.689129e-03 1 -0.1655 6.116878e-02)" class="st1" width="6.6" height="141.2"/>
<g>
	<rect x="437" y="62.8" class="st0" width="355.8" height="105.3"/>
	<path class="st1" d="M792.3,63.3v104.3H437.5V63.3H792.3 M793.3,62.3H436.5v106.3h356.8V62.3L793.3,62.3z"/>
</g>
<rect x="432.1" y="62.3" class="st1" width="6.6" height="106.3"/>
<rect x="432.1" y="27.4" class="st1" width="361.2" height="35"/>
<path class="st2" d="M464.2,50v-1.8c0-0.1,0-0.2-0.1-0.2c-0.1-0.1-0.1-0.1-0.2-0.1h-1.8c-0.1,0-0.2,0-0.2,0.1
	c-0.1,0.1-0.1,0.1-0.1,0.2V50c0,0.1,0,0.2,0.1,0.2c0.1,0.1,0.1,0.1,0.2,0.1h1.8c0.1,0,0.2,0,0.2-0.1C464.2,50.1,464.2,50.1,464.2,50
	 M464.2,46.4l0.2-4.3c0-0.1,0-0.1-0.1-0.2c-0.1-0.1-0.2-0.1-0.2-0.1H462c-0.1,0-0.1,0-0.2,0.1c-0.1,0-0.1,0.1-0.1,0.2l0.2,4.3
	c0,0.1,0,0.1,0.1,0.2c0.1,0,0.1,0.1,0.2,0.1h1.7c0.1,0,0.2,0,0.2-0.1C464.2,46.6,464.2,46.5,464.2,46.4 M464.1,37.7l7.2,13.3
	c0.2,0.4,0.2,0.8,0,1.2c-0.1,0.2-0.3,0.3-0.4,0.4c-0.2,0.1-0.4,0.2-0.6,0.2h-14.5c-0.2,0-0.4-0.1-0.6-0.2c-0.2-0.1-0.3-0.3-0.4-0.4
	c-0.2-0.4-0.2-0.8,0-1.2l7.2-13.3c0.1-0.2,0.3-0.3,0.4-0.5c0.2-0.1,0.4-0.2,0.6-0.2c0.2,0,0.4,0.1,0.6,0.2
	C463.8,37.3,464,37.5,464.1,37.7"/>
<text transform="matrix(1 0 0 1 475.6044 50.9243)"><tspan x="0" y="0" class="st2 st3 st4">Im</tspan><tspan x="19.4" y="0" class="st2 st3 st4">p</tspan><tspan x="29.4" y="0" class="st2 st3 st4">o</tspan><tspan x="39.1" y="0" class="st2 st3 st4">r</tspan><tspan x="46.4" y="0" class="st2 st3 st4">t</tspan><tspan x="52.5" y="0" class="st2 st3 st4">a</tspan><tspan x="61.4" y="0" class="st2 st3 st4">n</tspan><tspan x="71.4" y="0" class="st2 st3 st4">t</tspan></text>
<rect x="454.6" y="80.9" class="st5" width="188.8" height="27.1"/>
<rect x="55.9" y="48.8" class="st5" width="188.8" height="27.1"/>
<g>
	<path class="st6" d="M403.1,155.2c-1.2-1.2-3.5-1.2-5,0l-6.2,6.2l-6.2-6.2c-1.2-1.2-3.5-1.2-5,0c-1.2,1.2-1.2,3.5,0,5l6.2,6.2
		l-6.2,6.2c-1.2,1.2-1.2,3.5,0,5c0.7,0.7,1.5,1,2.5,1c1,0,1.7-0.2,2.5-1l6.2-6.2l6.2,6.2c0.7,0.7,1.5,1,2.5,1c1,0,1.7-0.2,2.5-1
		c1.2-1.2,1.2-3.5,0-5l-6.2-6.2l6.2-6.2C404.3,158.7,404.3,156.5,403.1,155.2z"/>
</g>
<g>
	<path class="st7" d="M780.2,177.6c0.7,0.7,1.5,1,2.5,1s1.7-0.2,2.5-1l17.2-17.2c1.2-1.2,1.2-3.5,0-5c-1.2-1.2-3.5-1.2-5,0
		l-14.7,14.7l-8-8c-1.2-1.2-3.5-1.2-5,0c-1.2,1.2-1.2,3.5,0,5L780.2,177.6z"/>
</g>
</svg>
