<?xml version="1.0" encoding="utf-8"?>
<!-- Generator: Adobe Illustrator 19.2.1, SVG Export Plug-In . SVG Version: 6.00 Build 0)  -->
<svg version="1.1" id="Layer_1" xmlns="http://www.w3.org/2000/svg" xmlns:xlink="http://www.w3.org/1999/xlink" x="0px" y="0px"
	 width="1132.8px" height="744px" viewBox="0 0 1132.8 744" style="enable-background:new 0 0 1132.8 744;" xml:space="preserve">
<style type="text/css">
	.st0{fill:#FFFFFF;}
	.st1{fill:#EEEEEE;}
	.st2{fill:#004B88;}
	.st3{fill:#F2F8FF;}
	.st4{font-family:'OpenSans-Semibold';}
	.st5{font-size:21px;}
	.st6{font-family:'OpenSans';}
	.st7{font-size:16px;}
</style>
<desc>Created by HiQPdf</desc>
<g>
	<path vector-effect="none" class="st0" d="M0,0h1132.8v744H0V0"/>
</g>
<g>
	<path vector-effect="none" class="st1" d="M0,0h1132.8v71H0V0"/>
</g>
<g>
	<g>
		<path vector-effect="none" class="st0" d="M69.4,34.7c0,8.4-7.1,15.3-14.3,15.3l0.8-2.2c-7.5,0-13.5-5.6-13.5-13.1
			c0-7.6,6.1-13.7,13.5-13.7C63.4,21,69.4,27.1,69.4,34.7"/>
	</g>
	<g>
		<path vector-effect="none" class="st0" d="M173.6,42.6v-8c0-1.4-0.4-2.5-1.3-3.2c-0.9-0.7-2.1-1.1-3.7-1.1c-1.7,0-3.2,0.3-4.6,1.1
			l1.1,2.2c1.3-0.6,2.4-0.9,3.4-0.9c1.2,0,1.9,0.6,1.9,1.8V35l-2.1,0.1c-1.8,0.1-3.1,0.4-4,1s-1.3,1.6-1.3,2.8s0.3,2.2,1,2.8
			c0.7,0.7,1.6,1,2.7,1c0.9,0,1.7-0.1,2.3-0.4c0.6-0.3,1.1-0.7,1.7-1.4h0.1l0.6,1.6h2.2 M170.4,38.1c0,0.7-0.2,1.3-0.7,1.8
			c-0.5,0.4-1.1,0.7-1.8,0.7c-1.1,0-1.6-0.5-1.6-1.4c0-0.7,0.2-1.1,0.7-1.4c0.5-0.3,1.1-0.5,2.1-0.5l1.3-0.1V38.1 M183.2,41.1h0.1
			l0.6,1.6h2.5V25.9h-3.3v3.8c0,0.7,0.1,1.5,0.3,2.4h-0.1c-0.8-1.1-2-1.8-3.4-1.8s-2.6,0.5-3.4,1.6c-0.8,1.1-1.2,2.6-1.2,4.6
			s0.4,3.4,1.2,4.6c0.8,1.1,1.9,1.6,3.3,1.6C181.4,42.9,182.5,42.3,183.2,41.1 M179.3,39.4c-0.4-0.6-0.6-1.5-0.6-2.6
			c0-1.2,0.2-2.1,0.6-2.7c0.4-0.6,0.9-0.9,1.7-0.9c0.9,0,1.6,0.3,2,0.8s0.6,1.5,0.6,2.8v0.3c-0.1,1.1-0.3,2-0.6,2.5
			c-0.4,0.5-1,0.7-1.8,0.7S179.7,40,179.3,39.4 M195.7,42.6l4.6-12h-3.4l-2.3,6.9c-0.3,0.9-0.5,1.8-0.5,2.5H194
			c-0.1-0.7-0.2-1.6-0.5-2.5l-2.3-6.9h-3.4l4.6,12H195.7 M203.2,29.2c0.6,0,1-0.1,1.3-0.4s0.5-0.7,0.5-1.2c0-1.1-0.6-1.6-1.8-1.6
			s-1.8,0.5-1.8,1.6C201.4,28.6,202,29.2,203.2,29.2 M204.8,30.6h-3.2v12h3.2V30.6 M214.7,42.7c0.5-0.1,1.1-0.3,1.6-0.7v-2.8
			c-0.5,0.3-1.1,0.6-1.6,0.8s-1.1,0.3-1.8,0.3c-1.7,0-2.6-1.1-2.6-3.5s0.9-3.6,2.6-3.6c0.5,0,0.9,0.1,1.3,0.2
			c0.5,0.1,0.9,0.3,1.4,0.5l0.9-2.6c-1.1-0.5-2.4-0.8-3.7-0.8c-1.9,0-3.4,0.5-4.4,1.6c-1,1.1-1.6,2.6-1.6,4.7c0,4.1,1.9,6.1,5.6,6.1
			C213.5,42.9,214.1,42.9,214.7,42.7 M225.3,33.4c0.4,0.5,0.6,1.1,0.6,1.9h-4.6c0.1-0.8,0.3-1.4,0.7-1.9s0.9-0.7,1.6-0.7
			C224.2,32.7,224.9,33,225.3,33.4 M226.4,42.6c0.7-0.1,1.3-0.3,1.8-0.6v-2.6c-0.7,0.3-1.3,0.5-2,0.7c-0.7,0.1-1.3,0.2-2,0.2
			c-0.9,0-1.6-0.3-2.2-0.8c-0.5-0.5-0.8-1.3-0.8-2.2h7.7v-1.6c0-1.7-0.5-3-1.4-4c-0.9-0.9-2.3-1.5-4-1.5c-1.8,0-3.2,0.5-4.2,1.6
			s-1.5,2.6-1.5,4.7c0,2,0.5,3.4,1.6,4.5s2.6,1.6,4.5,1.6C225,42.9,225.8,42.8,226.4,42.6"/>
	</g>
	<g>
		<path vector-effect="none" class="st0" d="M85.7,42.7c0.5-0.1,1.1-0.3,1.6-0.7v-2.8c-0.5,0.3-1.1,0.6-1.6,0.8s-1.1,0.3-1.8,0.3
			c-1.7,0-2.6-1.1-2.6-3.5s0.9-3.6,2.6-3.6c0.5,0,0.9,0.1,1.3,0.2c0.5,0.1,0.9,0.3,1.4,0.5l0.9-2.6c-1.1-0.5-2.4-0.8-3.7-0.8
			c-1.9,0-3.4,0.5-4.4,1.6c-1,1.1-1.6,2.6-1.6,4.7c0,4.1,1.9,6.1,5.6,6.1C84.4,42.9,85.1,42.9,85.7,42.7 M91.2,29.2
			c0.6,0,1-0.1,1.3-0.4s0.5-0.7,0.5-1.2c0-1.1-0.6-1.6-1.8-1.6c-1.2,0-1.8,0.5-1.8,1.6C89.4,28.6,90,29.2,91.2,29.2 M92.9,30.6h-3.2
			v12h3.2V30.6 M99.8,40c-0.3-0.2-0.4-0.5-0.4-1v-5.8h3.4v-2.5h-3.4v-2.6h-2.1l-0.9,2.6l-1.8,1.1v1.4h1.6V39c0,1.3,0.3,2.3,0.9,3
			s1.6,1,2.8,1s2.2-0.2,3-0.5V40c-0.8,0.3-1.5,0.4-2,0.4C100.4,40.3,100.1,40.2,99.8,40 M106.6,29.2c0.6,0,1-0.1,1.3-0.4
			s0.5-0.7,0.5-1.2c0-1.1-0.6-1.6-1.8-1.6s-1.8,0.5-1.8,1.6C104.8,28.6,105.3,29.2,106.6,29.2 M108.2,30.6H105v12h3.2V30.6
			 M119.5,40.2h-5.6l5.4-7.4v-2.2h-8.9v2.5h5.2l-5.5,7.6v2h9.4V40.2 M128,33.4c0.4,0.5,0.6,1.1,0.6,1.9H124c0.1-0.8,0.3-1.4,0.7-1.9
			s0.9-0.7,1.6-0.7C127.1,32.7,127.6,33,128,33.4 M129.2,42.6c0.7-0.1,1.3-0.3,1.8-0.6v-2.6c-0.7,0.3-1.3,0.5-2,0.7
			c-0.7,0.1-1.3,0.2-2,0.2c-0.9,0-1.6-0.3-2.2-0.8c-0.5-0.5-0.8-1.3-0.8-2.2h7.7v-1.6c0-1.7-0.5-3-1.4-4c-0.9-0.9-2.2-1.5-4-1.5
			s-3.2,0.5-4.2,1.6s-1.5,2.6-1.5,4.7c0,2,0.5,3.4,1.6,4.5s2.6,1.6,4.5,1.6C127.7,42.9,128.5,42.8,129.2,42.6 M145,34.8
			c0-1.4-0.3-2.5-1.1-3.3c-0.7-0.7-1.8-1.1-3.2-1.1c-0.8,0-1.6,0.1-2.2,0.5c-0.6,0.3-1.1,0.7-1.5,1.3h-0.2l-0.4-1.6h-2.5v12h3.2V37
			c0-1.4,0.2-2.4,0.6-3c0.4-0.6,1.1-0.9,2-0.9c0.7,0,1.1,0.2,1.5,0.7c0.3,0.4,0.5,1.1,0.5,2v7h3.2L145,34.8 M155.9,37.6
			c-0.2-0.4-0.5-0.8-0.9-1.1s-1.1-0.7-2-1.1c-1.1-0.4-1.8-0.7-2-0.9c-0.3-0.2-0.5-0.5-0.5-0.7c0-0.5,0.5-0.8,1.4-0.8
			c0.5,0,1.1,0.1,1.6,0.3c0.5,0.1,1.1,0.4,1.7,0.6l1-2.4c-1.3-0.6-2.8-0.9-4.2-0.9c-1.5,0-2.7,0.3-3.5,0.9s-1.2,1.4-1.2,2.5
			c0,0.6,0.1,1.1,0.3,1.6c0.2,0.4,0.5,0.8,0.9,1.1s1.1,0.7,2,1.1c0.7,0.3,1.1,0.5,1.6,0.7c0.4,0.2,0.7,0.4,0.8,0.5s0.2,0.4,0.2,0.6
			c0,0.7-0.6,1-1.8,1c-0.6,0-1.3-0.1-2-0.3s-1.4-0.4-2-0.7v2.7c0.5,0.2,1.1,0.4,1.8,0.5c0.6,0.1,1.3,0.2,2.2,0.2
			c1.7,0,3-0.3,3.8-0.9c0.9-0.7,1.3-1.6,1.3-2.8C156.3,38.5,156.1,38,155.9,37.6"/>
	</g>
</g>
<path vector-effect="none" class="st2" d="M0,608h1132v136H0V608"/>
<path vector-effect="none" class="st1" d="M26,116.7h1080v1H26V116.7"/>
<g>
	<g>
		<rect x="42" y="89.2" class="st1" width="36" height="12"/>
	</g>
	<g>
		<rect x="98.3" y="89.2" class="st1" width="36" height="12"/>
	</g>
	<g>
		<rect x="154.7" y="89.2" class="st1" width="36" height="12"/>
	</g>
</g>
<g>
	<path vector-effect="none" class="st1" d="M42,222.7h603V333H42V222.7"/>
</g>
<g>
	<rect x="42" y="155.7" class="st1" width="138.7" height="29"/>
</g>
<rect x="753.3" y="257.1" class="st1" width="96.3" height="11.3"/>
<rect x="753.3" y="300.4" class="st1" width="96.3" height="11.3"/>
<rect x="753.3" y="207.8" class="st1" width="168.3" height="15.8"/>
<rect x="753.3" y="166" class="st1" width="102.7" height="8.4"/>
<g>
	<path vector-effect="none" class="st0" d="M108.7,673.9c0,20.4-17.5,37.3-35.4,37.3c0,0,2.1-5.4,2-5.4c-18.4,0-33.3-13.5-33.3-31.9
		s14.9-33.3,33.3-33.3C93.8,640.6,108.7,655.5,108.7,673.9"/>
	<rect x="131.3" y="661.7" class="st0" width="679.7" height="6.9"/>
	<rect x="131.3" y="683.2" class="st0" width="921.6" height="6.9"/>
</g>
<g>
	<path vector-effect="none" class="st3" d="M0,371h1132v237H0V371"/>
	<path vector-effect="none" class="st0" d="M50,442h770v1H50V442"/>
	<path vector-effect="none" class="st0" d="M836,442h246v1H836V442"/>
	<text transform="matrix(1 0 0 1 50 418.9537)" class="st2 st4 st5">Footer heading</text>
	<g>
		<text transform="matrix(1 0 0 1 50 473.9537)" class="st6 st7">Footer nav link</text>
		<text transform="matrix(1 0 0 1 50 505.9537)" class="st6 st7">Footer nav link</text>
		<text transform="matrix(1 0 0 1 50 537.9537)" class="st6 st7">Footer nav link</text>
		<text transform="matrix(1 0 0 1 50 569.9537)" class="st6 st7">Footer nav link</text>
	</g>
	<g>
		<text transform="matrix(1 0 0 1 312.0002 473.9537)" class="st6 st7">Footer nav link</text>
		<text transform="matrix(1 0 0 1 312.0002 505.9537)" class="st6 st7">Footer nav link</text>
		<text transform="matrix(1 0 0 1 312.0002 537.9537)" class="st6 st7">Footer nav link</text>
		<text transform="matrix(1 0 0 1 312.0002 569.9537)" class="st6 st7">Footer nav link</text>
	</g>
	<g>
		<text transform="matrix(1 0 0 1 573.9999 473.9537)" class="st6 st7">Footer nav link</text>
		<text transform="matrix(1 0 0 1 573.9999 505.9537)" class="st6 st7">Footer nav link</text>
		<text transform="matrix(1 0 0 1 573.9999 537.9537)" class="st6 st7">Footer nav link</text>
		<text transform="matrix(1 0 0 1 573.9999 569.9537)" class="st6 st7">Footer nav link</text>
	</g>
	<g>
		<text transform="matrix(1 0 0 1 836.0004 473.9537)" class="st6 st7">Footer nav link</text>
		<text transform="matrix(1 0 0 1 836.0004 505.9537)" class="st6 st7">Footer nav link</text>
		<text transform="matrix(1 0 0 1 836.0004 537.9537)" class="st6 st7">Footer nav link</text>
		<text transform="matrix(1 0 0 1 836.0004 569.9537)" class="st6 st7">Footer nav link</text>
	</g>
	<text transform="matrix(1 0 0 1 836 418.9537)" class="st2 st4 st5">Footer heading</text>
</g>
</svg>
