<?xml version="1.0" encoding="utf-8"?>
<!-- Generator: Adobe Illustrator 19.2.1, SVG Export Plug-In . SVG Version: 6.00 Build 0)  -->
<svg version="1.1" id="Layer_1" xmlns="http://www.w3.org/2000/svg" xmlns:xlink="http://www.w3.org/1999/xlink" x="0px" y="0px"
	 width="1132px" height="1099.1px" viewBox="0 0 1132 1099.1" style="enable-background:new 0 0 1132 1099.1;" xml:space="preserve"
	>
<style type="text/css">
	.st0{fill:#FFFFFF;}
	.st1{fill:#004B88;}
	.st2{fill:#A2D5FF;}
	.st3{font-family:'ArialMT';}
	.st4{font-size:16px;}
	.st5{fill:#FCBB69;}
	.st6{font-family:'OpenSans-Bold';}
	.st7{font-size:19px;}
	.st8{fill:#EEEEEE;}
	.st9{fill:#F2F8FF;}
</style>
<path vector-effect="none" class="st0" d="M0,0h1132v1099.1H0V0"/>
<desc>Created by HiQPdf</desc>
<path vector-effect="none" class="st1" d="M0,0h1132v32H0V0"/>
<path vector-effect="none" class="st2" d="M0,32h1132v62H0V32"/>
<path class="st0" d="M1088,44H756c-1.1,0-2,0.9-2,2v34c0,1.1,0.9,2,2,2h332c1.1,0,2-0.9,2-2V46C1090,44.9,1089.1,44,1088,44z"/>
<path vector-effect="none" class="st1" d="M0,963.1h1132v136H0V963.1"/>
<text transform="matrix(1 0 0 1 950 22)" class="st3 st4"> </text>
<text transform="matrix(1 0 0 1 1027 22)" class="st3 st4"> </text>
<path vector-effect="none" class="st5" d="M990,45h97c1.1,0,2,0.9,2,2v32c0,1.1-0.9,2-2,2h-97V45"/>
<text transform="matrix(1 0 0 1 500 50)" class="st3 st4"> </text>
<text transform="matrix(1 0 0 1 377.0689 70)" class="st1 st6 st7">Get Advice </text>
<text transform="matrix(1 0 0 1 513.069 70)" class="st1 st6 st7">Get Involved </text>
<g>
	<path vector-effect="none" class="st1" d="M73.6,62.1c0,9.8-8.3,17.9-16.8,17.9l0.9-2.6C49,77.4,42,70.9,42,62.1S49.1,46,57.8,46
		C66.6,46,73.6,53.2,73.6,62.1"/>
	<path vector-effect="none" class="st1" d="M194.1,71.4V62c0-1.7-0.5-2.9-1.5-3.8c-1-0.8-2.5-1.3-4.3-1.3c-2,0-3.7,0.4-5.4,1.3
		l1.3,2.6c1.5-0.7,2.8-1,4-1c1.4,0,2.2,0.7,2.2,2.1v0.6l-2.5,0.1c-2.1,0.1-3.6,0.5-4.7,1.2c-1,0.7-1.6,1.8-1.6,3.3
		c0,1.4,0.4,2.5,1.2,3.3s1.8,1.2,3.2,1.2c1.1,0,2-0.2,2.7-0.5s1.3-0.9,2-1.7h0.2l0.7,1.9L194.1,71.4 M190.3,66
		c0,0.9-0.2,1.5-0.8,2.1c-0.6,0.5-1.3,0.8-2.1,0.8c-1.3,0-1.8-0.6-1.8-1.7c0-0.8,0.2-1.3,0.8-1.7c0.6-0.4,1.3-0.6,2.5-0.6l1.5-0.1
		L190.3,66 M205.4,69.6h0.2l0.7,1.8h2.9V51.8h-3.9v4.5c0,0.8,0.1,1.7,0.3,2.8h-0.2c-0.9-1.3-2.3-2.1-4-2.1s-3,0.6-4,1.9
		c-0.9,1.3-1.4,3.1-1.4,5.4s0.5,4,1.4,5.4c0.9,1.3,2.2,1.9,3.9,1.9C203.2,71.6,204.5,71,205.4,69.6 M200.7,67.6
		c-0.5-0.7-0.7-1.7-0.7-3.1s0.2-2.5,0.7-3.2s1.1-1.1,2-1.1c1,0,1.8,0.3,2.3,0.9c0.5,0.6,0.7,1.7,0.7,3.2v0.4
		c-0.1,1.3-0.3,2.4-0.7,2.9c-0.5,0.6-1.2,0.9-2.1,0.9S201.2,68.2,200.7,67.6 M220,71.4l5.4-14.1h-4l-2.7,8.1
		c-0.3,1.1-0.6,2.1-0.6,2.9H218c-0.1-0.9-0.2-1.9-0.6-2.9l-2.7-8.1h-4l5.4,14.1H220 M228.8,55.6c0.7,0,1.2-0.2,1.6-0.5
		c0.4-0.3,0.6-0.8,0.6-1.4c0-1.3-0.7-1.9-2.1-1.9c-1.4,0-2.1,0.6-2.1,1.9C226.6,54.9,227.3,55.6,228.8,55.6 M230.7,57.3h-3.8v14.1
		h3.8V57.3 M242.2,71.5c0.6-0.2,1.3-0.4,1.9-0.8v-3.3c-0.6,0.4-1.3,0.7-1.9,0.9c-0.6,0.2-1.3,0.3-2.1,0.3c-2,0-3-1.3-3-4.1
		c0-2.8,1-4.3,3-4.3c0.6,0,1,0.1,1.6,0.2c0.6,0.2,1.1,0.3,1.7,0.6l1.1-3c-1.3-0.6-2.8-0.9-4.3-0.9c-2.2,0-4,0.6-5.1,1.9
		c-1.2,1.3-1.8,3.1-1.8,5.5c0,4.8,2.2,7.2,6.6,7.2C240.8,71.6,241.6,71.6,242.2,71.5 M254.6,60.5c0.5,0.6,0.7,1.3,0.7,2.2H250
		c0.1-0.9,0.3-1.7,0.8-2.2c0.5-0.6,1.1-0.8,1.9-0.8C253.4,59.8,254.1,60.1,254.6,60.5 M256,71.4c0.8-0.2,1.5-0.4,2.1-0.7v-3
		c-0.8,0.4-1.6,0.6-2.4,0.9c-0.8,0.2-1.6,0.2-2.4,0.2c-1.1,0-1.9-0.3-2.5-0.9s-0.9-1.5-0.9-2.5h9v-1.9c0-2-0.6-3.6-1.7-4.7
		c-1.1-1.1-2.7-1.7-4.7-1.7c-2.1,0-3.7,0.6-4.9,1.9c-1.2,1.3-1.7,3.1-1.7,5.5c0,2.3,0.6,4,1.9,5.3c1.3,1.3,3,1.9,5.3,1.9
		C254.3,71.6,255.3,71.5,256,71.4"/>
	<path vector-effect="none" class="st1" d="M90.9,71.5c0.6-0.2,1.3-0.4,1.9-0.8v-3.3c-0.6,0.4-1.3,0.7-1.9,0.9
		c-0.6,0.2-1.3,0.3-2.1,0.3c-2,0-3-1.3-3-4.1c0-2.8,1-4.3,3-4.3c0.6,0,1,0.1,1.6,0.2c0.6,0.2,1.1,0.4,1.7,0.6l1.1-3
		c-1.3-0.6-2.8-0.9-4.3-0.9c-2.2,0-4,0.6-5.1,1.9c-1.2,1.3-1.8,3.1-1.8,5.5c0,4.8,2.2,7.2,6.6,7.2C89.5,71.6,90.3,71.6,90.9,71.5
		 M97.5,55.6c0.7,0,1.2-0.2,1.6-0.5c0.3-0.3,0.6-0.8,0.6-1.4c0-1.3-0.7-1.9-2.1-1.9s-2.1,0.6-2.1,1.9C95.4,54.9,96.1,55.6,97.5,55.6
		 M99.4,57.3h-3.8v14.1h3.8V57.3 M107.5,68.2c-0.3-0.2-0.5-0.6-0.5-1.2v-6.8h4v-2.9h-4v-3h-2.5l-1.1,3l-2.1,1.3v1.7h1.8V67
		c0,1.6,0.3,2.7,1,3.5s1.8,1.2,3.3,1.2c1.4,0,2.5-0.2,3.5-0.6v-2.9c-0.9,0.3-1.7,0.5-2.4,0.5C108.3,68.6,107.9,68.5,107.5,68.2
		 M115.5,55.6c0.7,0,1.2-0.2,1.6-0.5c0.3-0.3,0.6-0.8,0.6-1.4c0-1.3-0.7-1.9-2.1-1.9s-2.1,0.6-2.1,1.9
		C113.4,54.9,114,55.6,115.5,55.6 M117.4,57.3h-3.8v14.1h3.8V57.3 M130.6,68.5H124l6.3-8.7v-2.5H120v2.9h6.1l-6.5,8.9v2.3h11.1
		L130.6,68.5 M140.6,60.5c0.5,0.6,0.7,1.3,0.7,2.2h-5.4c0.1-0.9,0.3-1.7,0.8-2.2c0.5-0.6,1.1-0.8,1.9-0.8
		C139.5,59.8,140.1,60.1,140.6,60.5 M142,71.4c0.8-0.2,1.5-0.4,2.1-0.7v-3c-0.8,0.4-1.6,0.6-2.4,0.9c-0.8,0.2-1.6,0.2-2.4,0.2
		c-1.1,0-1.9-0.3-2.5-0.9s-0.9-1.5-0.9-2.5h9v-1.9c0-2-0.6-3.6-1.7-4.7c-1.1-1.1-2.6-1.7-4.7-1.7c-2.1,0-3.7,0.6-4.9,1.9
		c-1.2,1.3-1.7,3.1-1.7,5.5c0,2.3,0.6,4,1.9,5.3c1.3,1.3,3,1.9,5.3,1.9C140.3,71.6,141.2,71.5,142,71.4 M160.5,62.2
		c0-1.7-0.4-2.9-1.3-3.9c-0.9-0.9-2.1-1.3-3.7-1.3c-0.9,0-1.8,0.2-2.5,0.6c-0.7,0.3-1.3,0.9-1.7,1.6H151l-0.5-1.8h-2.9v14.1h3.8
		v-6.6c0-1.7,0.2-2.8,0.7-3.6c0.5-0.7,1.3-1.1,2.3-1.1c0.8,0,1.3,0.2,1.7,0.8c0.4,0.5,0.6,1.3,0.6,2.3v8.2h3.8L160.5,62.2
		L160.5,62.2 M173.3,65.5c-0.2-0.5-0.6-0.9-1.1-1.3s-1.3-0.8-2.4-1.3c-1.3-0.5-2.1-0.9-2.4-1.1c-0.4-0.2-0.6-0.6-0.6-0.9
		c0-0.6,0.6-0.9,1.7-0.9c0.6,0,1.3,0.1,1.9,0.3c0.6,0.2,1.3,0.5,2,0.7l1.2-2.8c-1.6-0.7-3.2-1.1-4.9-1.1s-3.2,0.3-4.1,1
		c-0.9,0.7-1.4,1.7-1.4,2.9c0,0.7,0.1,1.3,0.3,1.8s0.6,0.9,1.1,1.3c0.5,0.4,1.3,0.8,2.4,1.3c0.8,0.3,1.3,0.6,1.8,0.9
		c0.5,0.2,0.8,0.5,0.9,0.6s0.2,0.5,0.2,0.7c0,0.8-0.7,1.2-2.1,1.2c-0.7,0-1.5-0.1-2.4-0.3c-0.9-0.2-1.7-0.5-2.4-0.9v3.2
		c0.6,0.2,1.3,0.5,2.1,0.6c0.7,0.2,1.6,0.2,2.6,0.2c2,0,3.5-0.4,4.5-1.1c1-0.8,1.5-1.8,1.5-3.3C173.7,66.6,173.6,65.9,173.3,65.5"/>
</g>
<path vector-effect="none" class="st8" d="M26,137h1080v1H26V137"/>
<g>
	<rect x="1048" y="13" class="st0" width="42" height="6"/>
	<rect x="978" y="13" class="st0" width="42" height="6"/>
	<rect x="908" y="13" class="st0" width="42" height="6"/>
</g>
<g>
	<g>
		<rect x="42" y="109.5" class="st8" width="36" height="12"/>
	</g>
	<g>
		<rect x="98.3" y="109.5" class="st8" width="36" height="12"/>
	</g>
	<g>
		<rect x="154.7" y="109.5" class="st8" width="36" height="12"/>
	</g>
</g>
<g>
	<path vector-effect="none" class="st8" d="M42,243h603v445H42V243"/>
</g>
<g>
	<rect x="42" y="176" class="st8" width="138.7" height="29"/>
</g>
<rect x="753.3" y="277.4" class="st8" width="96.3" height="11.3"/>
<rect x="753.3" y="320.7" class="st8" width="96.3" height="11.3"/>
<rect x="753.3" y="364" class="st8" width="96.3" height="11.3"/>
<rect x="753.3" y="407.2" class="st8" width="96.3" height="11.3"/>
<rect x="753.3" y="450.5" class="st8" width="96.3" height="11.3"/>
<rect x="753.3" y="493.8" class="st8" width="96.3" height="11.3"/>
<rect x="753.3" y="228.1" class="st8" width="168.3" height="15.8"/>
<rect x="753.3" y="186.3" class="st8" width="102.7" height="8.4"/>
<path class="st1" d="M1043.1,61.6c0-1.4-0.5-2.6-1.5-3.5c-1-1-2.2-1.5-3.5-1.5c-1.4,0-2.6,0.5-3.5,1.5c-1,1-1.5,2.2-1.5,3.5
	c0,1.4,0.5,2.6,1.5,3.5c1,1,2.2,1.5,3.5,1.5c1.4,0,2.6-0.5,3.5-1.5C1042.6,64.1,1043.1,62.9,1043.1,61.6z M1048.8,70.9
	c0,0.4-0.1,0.7-0.4,1s-0.6,0.4-1,0.4s-0.7-0.1-1-0.4l-3.8-3.8c-1.3,0.9-2.8,1.4-4.5,1.4c-1.1,0-2.1-0.2-3.1-0.6s-1.8-1-2.5-1.7
	s-1.3-1.5-1.7-2.5c-0.4-1-0.6-2-0.6-3.1s0.2-2.1,0.6-3.1s1-1.8,1.7-2.5s1.5-1.3,2.5-1.7s2-0.6,3.1-0.6s2.1,0.2,3.1,0.6
	c1,0.4,1.8,1,2.5,1.7s1.3,1.5,1.7,2.5c0.4,1,0.6,2,0.6,3.1c0,1.6-0.5,3.1-1.4,4.5l3.8,3.8C1048.6,70.1,1048.8,70.5,1048.8,70.9z"/>
<g>
	<path vector-effect="none" class="st0" d="M108.7,1029c0,20.4-17.5,37.3-35.4,37.3c0,0,2.1-5.4,2-5.4c-18.4,0-33.3-13.5-33.3-31.9
		s14.9-33.3,33.3-33.3C93.8,995.7,108.7,1010.6,108.7,1029"/>
	<rect x="131.3" y="1016.8" class="st0" width="679.7" height="6.9"/>
	<rect x="131.3" y="1038.3" class="st0" width="921.6" height="6.9"/>
</g>
<g>
	<path vector-effect="none" class="st9" d="M0,726.1h1132v237H0V726.1"/>
	<path vector-effect="none" class="st0" d="M50,796.5h770v1H50V796.5"/>
	<path vector-effect="none" class="st0" d="M836,796.5h246v1H836V796.5"/>
	<rect x="50" y="820" width="63" height="7"/>
	<rect x="50" y="852" width="39.1" height="7"/>
	<rect x="50" y="884" width="123.8" height="7"/>
	<rect x="50" y="916" width="77.3" height="7"/>
	<rect x="312" y="820" width="101.6" height="7"/>
	<rect x="312" y="852" width="61.9" height="7"/>
	<rect x="312" y="884" width="110.2" height="7"/>
	<rect x="312" y="916" width="110.2" height="7"/>
	<rect x="574" y="820" width="27.8" height="7"/>
	<rect x="574" y="852" width="82.7" height="7"/>
	<rect x="574" y="884" width="74.1" height="7"/>
	<rect x="574" y="916" width="115.5" height="7"/>
	<rect x="836" y="820" width="35.4" height="7"/>
	<rect x="836" y="852" width="67.7" height="7"/>
	<rect x="836" y="884" width="163.6" height="7"/>
	<rect x="836" y="916" width="148.3" height="7"/>
	<rect x="50" y="759" class="st1" width="106" height="15.1"/>
	<rect x="836" y="759" class="st1" width="118.3" height="15.1"/>
</g>
<rect x="772" y="57" class="st8" width="55" height="12"/>
</svg>
