<?xml version="1.0" encoding="utf-8"?>
<!-- Generator: Adobe Illustrator 20.0.0, SVG Export Plug-In . SVG Version: 6.00 Build 0)  -->
<svg version="1.1" id="Layer_1" xmlns="http://www.w3.org/2000/svg" xmlns:xlink="http://www.w3.org/1999/xlink" x="0px" y="0px"
	 width="316px" height="90px" viewBox="0 0 316 90" style="enable-background:new 0 0 316 90;" xml:space="preserve">
<style type="text/css">
	.st0{fill:#FFFFFF;}
	.st1{fill:#EEEEEE;}
	.st2{fill:#DFDFDF;}
	.st3{fill:#FBA437;}
</style>
<desc>Created by HiQPdf</desc>
<polygon class="st0" points="158,0 0,0 0,90 158,90 316,90 316,0 "/>
<path class="st1" d="M146.2,70H21.8c-1,0-1.8-0.8-1.8-1.8V21.8c0-1,0.8-1.8,1.8-1.8h124.4c1,0,1.8,0.8,1.8,1.8v46.4
	C148,69.2,147.2,70,146.2,70z"/>
<rect x="38.8" y="39" class="st2" width="67.5" height="12.1"/>
<path class="st0" d="M129.8,45.4l-7.1,7.1c-0.1,0.1-0.3,0.2-0.4,0.2c-0.2,0-0.3-0.1-0.4-0.2l-1.6-1.6c-0.1-0.1-0.2-0.3-0.2-0.4
	s0.1-0.3,0.2-0.4l5.1-5.1l-5.1-5.1c-0.1-0.1-0.2-0.3-0.2-0.4s0.1-0.3,0.2-0.4l1.6-1.6c0.1-0.1,0.3-0.2,0.4-0.2
	c0.2,0,0.3,0.1,0.4,0.2l7.1,7.1c0.1,0.1,0.2,0.3,0.2,0.4S129.9,45.3,129.8,45.4z"/>
<g>
	<path class="st1" d="M169.8,69c-0.4,0-0.8-0.4-0.8-0.8V21.8c0-0.4,0.4-0.8,0.8-0.8h124.4c0.4,0,0.8,0.4,0.8,0.8v46.4
		c0,0.4-0.4,0.8-0.8,0.8H169.8z"/>
	<path class="st3" d="M294,22v46H170V22H294 M294.2,20H169.8c-1,0-1.8,0.8-1.8,1.8v46.4c0,1,0.8,1.8,1.8,1.8h124.4
		c1,0,1.8-0.8,1.8-1.8V21.8C296,20.8,295.2,20,294.2,20L294.2,20z"/>
</g>
<rect x="186.8" y="39" class="st2" width="67.5" height="12.1"/>
<path class="st0" d="M277.8,45.4l-7.1,7.1c-0.1,0.1-0.3,0.2-0.4,0.2s-0.3-0.1-0.4-0.2l-1.6-1.6c-0.1-0.1-0.2-0.3-0.2-0.4
	s0.1-0.3,0.2-0.4l5.1-5.1l-5.1-5.1c-0.1-0.1-0.2-0.3-0.2-0.4s0.1-0.3,0.2-0.4l1.6-1.6c0.1-0.1,0.3-0.2,0.4-0.2s0.3,0.1,0.4,0.2
	l7.1,7.1c0.1,0.1,0.2,0.3,0.2,0.4S277.9,45.3,277.8,45.4z"/>
</svg>
