<?xml version="1.0" encoding="utf-8"?>
<!-- Generator: Adobe Illustrator 19.2.1, SVG Export Plug-In . SVG Version: 6.00 Build 0)  -->
<svg version="1.1" id="Layer_1" xmlns="http://www.w3.org/2000/svg" xmlns:xlink="http://www.w3.org/1999/xlink" x="0px" y="0px"
	 width="930px" height="794.4px" viewBox="0 0 930 794.4" style="enable-background:new 0 0 930 794.4;" xml:space="preserve">
<style type="text/css">
	.st0{fill:#FFFFFF;}
	.st1{fill:#F2F8FF;}
	.st2{fill:#EEEEEE;}
	.st3{fill:#FCBB69;}
	.st4{fill:#FEE4C3;}
	.st5{fill:#004B88;}
	.st6{font-family:'OpenSans-Semibold';}
	.st7{font-size:20px;}
	.st8{font-family:'OpenSans-Bold';}
	.st9{font-size:21px;}
	.st10{fill:#53388D;}
	.st11{font-family:'OpenSans';}
	.st12{font-size:16px;}
	.st13{fill:#003C64;}
</style>
<desc>Created by HiQPdf</desc>
<polygon class="st0" points="465,0 0,0 0,794.4 465,794.4 930,794.4 930,0 "/>
<g>
	<path vector-effect="none" class="st1" d="M486.9,206.3H914v42H486.9V206.3"/>
</g>
<path vector-effect="none" class="st2" d="M0,0h460v71H0V0"/>
<path vector-effect="none" class="st2" d="M0,615.4h460v179H0V615.4"/>
<g>
	<path vector-effect="none" class="st0" d="M44.5,34.7c0,8.4-7.1,15.3-14.3,15.3l0.8-2.2c-7.5,0-13.5-5.5-13.5-13.1S23.6,21,31,21
		C38.5,21,44.5,27.1,44.5,34.7"/>
	<path vector-effect="none" class="st0" d="M147.2,42.6v-8c0-1.4-0.4-2.5-1.3-3.2c-0.9-0.7-2.1-1.1-3.7-1.1c-1.7,0-3.2,0.3-4.6,1.1
		l1.1,2.2c1.3-0.6,2.4-0.9,3.4-0.9c1.2,0,1.9,0.6,1.9,1.8V35l-2.1,0.1c-1.8,0.1-3.1,0.4-4,1s-1.3,1.6-1.3,2.8s0.3,2.2,1,2.8
		c0.7,0.7,1.6,1,2.7,1c0.9,0,1.7-0.1,2.3-0.4c0.6-0.3,1.1-0.7,1.7-1.4h0.1l0.6,1.6h2.2 M144,38.1c0,0.7-0.2,1.3-0.7,1.8
		c-0.5,0.4-1.1,0.7-1.8,0.7c-1.1,0-1.6-0.5-1.6-1.4c0-0.7,0.2-1.1,0.7-1.4c0.5-0.3,1.1-0.5,2.1-0.5l1.3-0.1V38.1 M156.8,41.1h0.1
		l0.6,1.6h2.5V25.9h-3.3v3.8c0,0.7,0.1,1.5,0.3,2.4h-0.1c-0.8-1.1-2-1.8-3.4-1.8s-2.6,0.5-3.4,1.6c-0.8,1.1-1.2,2.6-1.2,4.6
		s0.4,3.4,1.2,4.6c0.8,1.1,1.9,1.6,3.3,1.6C155,42.9,156.1,42.3,156.8,41.1 M152.9,39.4c-0.4-0.6-0.6-1.5-0.6-2.6
		c0-1.2,0.2-2.1,0.6-2.7c0.4-0.6,0.9-0.9,1.7-0.9c0.9,0,1.6,0.3,2,0.8s0.6,1.5,0.6,2.8v0.3c-0.1,1.1-0.3,2-0.6,2.5
		c-0.4,0.5-1,0.7-1.8,0.7S153.3,40,152.9,39.4 M169.3,42.6l4.6-12h-3.4l-2.3,6.9c-0.3,0.9-0.5,1.8-0.5,2.5h-0.1
		c-0.1-0.7-0.2-1.6-0.5-2.5l-2.3-6.9h-3.4l4.6,12H169.3 M176.8,29.2c0.6,0,1-0.1,1.3-0.4s0.5-0.7,0.5-1.2c0-1.1-0.6-1.6-1.8-1.6
		s-1.8,0.5-1.8,1.6C175,28.6,175.6,29.2,176.8,29.2 M178.4,30.6h-3.2v12h3.2V30.6 M188.3,42.7c0.5-0.1,1.1-0.3,1.6-0.7v-2.8
		c-0.5,0.3-1.1,0.6-1.6,0.8s-1.1,0.3-1.8,0.3c-1.7,0-2.6-1.1-2.6-3.5s0.9-3.6,2.6-3.6c0.5,0,0.9,0.1,1.3,0.2
		c0.5,0.1,0.9,0.3,1.4,0.5l0.9-2.6c-1.1-0.5-2.4-0.8-3.7-0.8c-1.9,0-3.4,0.5-4.4,1.6c-1,1.1-1.6,2.6-1.6,4.7c0,4.1,1.9,6.1,5.6,6.1
		C187.1,42.9,187.7,42.9,188.3,42.7 M198.9,33.4c0.4,0.5,0.6,1.1,0.6,1.9h-4.6c0.1-0.8,0.3-1.4,0.7-1.9s0.9-0.7,1.6-0.7
		C197.8,32.7,198.5,33,198.9,33.4 M200,42.6c0.7-0.1,1.3-0.3,1.8-0.6v-2.6c-0.7,0.3-1.3,0.5-2,0.7c-0.7,0.1-1.3,0.2-2,0.2
		c-0.9,0-1.6-0.3-2.2-0.8c-0.5-0.5-0.8-1.3-0.8-2.2h7.7v-1.6c0-1.7-0.5-3-1.4-4s-2.3-1.5-4-1.5c-1.8,0-3.2,0.5-4.2,1.6
		s-1.5,2.6-1.5,4.7c0,2,0.5,3.4,1.6,4.5s2.6,1.6,4.5,1.6C198.6,42.9,199.4,42.8,200,42.6"/>
	<path vector-effect="none" class="st0" d="M59.3,42.7c0.5-0.1,1.1-0.3,1.6-0.7v-2.8c-0.5,0.3-1.1,0.6-1.6,0.8s-1.1,0.3-1.8,0.3
		c-1.7,0-2.6-1.1-2.6-3.5s0.9-3.6,2.6-3.6c0.5,0,0.9,0.1,1.3,0.2c0.5,0.1,0.9,0.3,1.4,0.5l0.9-2.6c-1.1-0.5-2.4-0.8-3.7-0.8
		c-1.9,0-3.4,0.5-4.4,1.6c-1,1.1-1.6,2.6-1.6,4.7c0,4.1,1.9,6.1,5.6,6.1C58,42.9,58.7,42.9,59.3,42.7 M64.8,29.2
		c0.6,0,1-0.1,1.3-0.4s0.5-0.7,0.5-1.2c0-1.1-0.6-1.6-1.8-1.6c-1.2,0-1.8,0.5-1.8,1.6C63,28.6,63.6,29.2,64.8,29.2 M66.5,30.6h-3.2
		v12h3.2V30.6 M73.4,40c-0.3-0.2-0.4-0.5-0.4-1v-5.8h3.4v-2.5H73v-2.6h-2.1L70,30.6l-1.8,1.1v1.4h1.6v5.8c0,1.3,0.3,2.3,0.9,3
		s1.6,1,2.8,1c1.2,0,2.2-0.2,3-0.5v-2.5c-0.8,0.3-1.5,0.4-2,0.4C74,40.3,73.7,40.2,73.4,40 M80.2,29.2c0.6,0,1-0.1,1.3-0.4
		s0.5-0.7,0.5-1.2c0-1.1-0.6-1.6-1.8-1.6c-1.2,0-1.8,0.5-1.8,1.6C78.4,28.6,78.9,29.2,80.2,29.2 M81.8,30.6h-3.2v12h3.2V30.6
		 M93.1,40.2h-5.6l5.4-7.4v-2.2H84v2.5h5.2l-5.5,7.6v2h9.4V40.2 M101.6,33.4c0.4,0.5,0.6,1.1,0.6,1.9h-4.6c0.1-0.8,0.3-1.4,0.7-1.9
		c0.4-0.5,0.9-0.7,1.6-0.7C100.7,32.7,101.2,33,101.6,33.4 M102.8,42.6c0.7-0.1,1.3-0.3,1.8-0.6v-2.6c-0.7,0.3-1.3,0.5-2,0.7
		c-0.7,0.1-1.3,0.2-2,0.2c-0.9,0-1.6-0.3-2.2-0.8c-0.5-0.5-0.8-1.3-0.8-2.2h7.7v-1.6c0-1.7-0.5-3-1.4-4c-0.9-0.9-2.2-1.5-4-1.5
		s-3.2,0.5-4.2,1.6s-1.5,2.6-1.5,4.7c0,2,0.5,3.4,1.6,4.5s2.6,1.6,4.5,1.6C101.3,42.9,102.1,42.8,102.8,42.6 M118.6,34.8
		c0-1.4-0.3-2.5-1.1-3.3c-0.7-0.7-1.8-1.1-3.2-1.1c-0.8,0-1.6,0.1-2.2,0.5c-0.6,0.3-1.1,0.7-1.5,1.3h-0.2l-0.4-1.6h-2.5v12h3.2V37
		c0-1.4,0.2-2.4,0.6-3s1.1-0.9,2-0.9c0.7,0,1.1,0.2,1.5,0.7c0.3,0.4,0.5,1.1,0.5,2v7h3.2L118.6,34.8 M129.5,37.6
		c-0.2-0.4-0.5-0.8-0.9-1.1s-1.1-0.7-2-1.1c-1.1-0.4-1.8-0.7-2-0.9c-0.3-0.2-0.5-0.5-0.5-0.7c0-0.5,0.5-0.8,1.4-0.8
		c0.5,0,1.1,0.1,1.6,0.3c0.5,0.1,1.1,0.4,1.7,0.6l1-2.4c-1.3-0.6-2.8-0.9-4.2-0.9c-1.5,0-2.7,0.3-3.5,0.9s-1.2,1.4-1.2,2.5
		c0,0.6,0.1,1.1,0.3,1.6c0.2,0.4,0.5,0.8,0.9,1.1s1.1,0.7,2,1.1c0.7,0.3,1.1,0.5,1.6,0.7c0.4,0.2,0.7,0.4,0.8,0.5
		c0.1,0.1,0.2,0.4,0.2,0.6c0,0.7-0.6,1-1.8,1c-0.6,0-1.3-0.1-2-0.3s-1.4-0.4-2-0.7v2.7c0.5,0.2,1.1,0.4,1.8,0.5
		c0.6,0.1,1.3,0.2,2.2,0.2c1.7,0,3-0.3,3.8-0.9c0.9-0.7,1.3-1.6,1.3-2.8C129.9,38.5,129.7,38,129.5,37.6"/>
</g>
<path vector-effect="none" class="st0" d="M16,103h428v52H16V103"/>
<path vector-effect="none" class="st3" d="M16,103h428v1H16V103"/>
<path vector-effect="none" class="st3" d="M16,154h428v1H16V154"/>
<path vector-effect="none" class="st3" d="M16,103h1v52h-1V103"/>
<path vector-effect="none" class="st3" d="M443,103h1v52h-1V103"/>
<path vector-effect="none" class="st4" d="M17,104h426v50H17V104"/>
<text transform="matrix(1 0 0 1 29 136)" class="st5 st6 st7">In this section</text>
<path vector-effect="none" class="st2" d="M17.5,237.2H444v348H17.5V237.2"/>
<rect x="17.5" y="184.3" class="st2" width="108.5" height="22.7"/>
<g>
	<path vector-effect="none" class="st0" d="M69.9,677c0,15.9-13.6,29-27.5,29l1.6-4.2c-14.3,0-25.9-10.5-25.9-24.8
		s11.6-25.9,25.9-25.9S69.9,662.7,69.9,677"/>
	<rect x="88" y="655.6" class="st0" width="340" height="12.2"/>
	<rect x="88" y="678.4" class="st0" width="340" height="12.2"/>
	<rect x="88" y="701.1" class="st0" width="340" height="12.2"/>
	<rect x="88" y="723.9" class="st0" width="340" height="12.2"/>
	<rect x="88" y="746.6" class="st0" width="340" height="12.2"/>
</g>
<path class="st5" d="M422.2,127.8v2.3c0,0.3-0.1,0.6-0.3,0.8s-0.5,0.3-0.8,0.3H416v5.1c0,0.3-0.1,0.6-0.3,0.8
	c-0.2,0.2-0.5,0.3-0.8,0.3h-2.3c-0.3,0-0.6-0.1-0.8-0.3c-0.2-0.2-0.3-0.5-0.3-0.8v-5.1h-5.1c-0.3,0-0.6-0.1-0.8-0.3
	c-0.2-0.2-0.3-0.5-0.3-0.8v-2.3c0-0.3,0.1-0.6,0.3-0.8c0.2-0.2,0.5-0.3,0.8-0.3h5.1v-5.1c0-0.3,0.1-0.6,0.3-0.8
	c0.2-0.2,0.5-0.3,0.8-0.3h2.3c0.3,0,0.6,0.1,0.8,0.3c0.2,0.2,0.3,0.5,0.3,0.8v5.1h5.1c0.3,0,0.6,0.1,0.8,0.3
	C422.1,127.2,422.2,127.5,422.2,127.8z"/>
<path vector-effect="none" class="st2" d="M470,0h460v71H470V0"/>
<g>
	<path vector-effect="none" class="st0" d="M514.5,34.7c0,8.4-7.1,15.3-14.3,15.3l0.8-2.2c-7.5,0-13.5-5.5-13.5-13.1
		S493.6,21,501,21C508.5,21,514.5,27.1,514.5,34.7"/>
	<path vector-effect="none" class="st0" d="M617.2,42.6v-8c0-1.4-0.4-2.5-1.3-3.2c-0.9-0.7-2.1-1.1-3.7-1.1c-1.7,0-3.2,0.3-4.6,1.1
		l1.1,2.2c1.3-0.6,2.4-0.9,3.4-0.9c1.2,0,1.9,0.6,1.9,1.8V35l-2.1,0.1c-1.8,0.1-3.1,0.4-4,1s-1.3,1.6-1.3,2.8s0.3,2.2,1,2.8
		c0.7,0.7,1.6,1,2.7,1c0.9,0,1.7-0.1,2.3-0.4c0.6-0.3,1.1-0.7,1.7-1.4h0.1l0.6,1.6h2.2 M614,38.1c0,0.7-0.2,1.3-0.7,1.8
		c-0.5,0.4-1.1,0.7-1.8,0.7c-1.1,0-1.6-0.5-1.6-1.4c0-0.7,0.2-1.1,0.7-1.4c0.5-0.3,1.1-0.5,2.1-0.5l1.3-0.1V38.1 M626.8,41.1
		L626.8,41.1l0.7,1.6h2.5V25.9h-3.3v3.8c0,0.7,0.1,1.5,0.3,2.4h-0.1c-0.8-1.1-2-1.8-3.4-1.8s-2.6,0.5-3.4,1.6
		c-0.8,1.1-1.2,2.6-1.2,4.6s0.4,3.4,1.2,4.6c0.8,1.1,1.9,1.6,3.3,1.6C625,42.9,626.1,42.3,626.8,41.1 M622.9,39.4
		c-0.4-0.6-0.6-1.5-0.6-2.6c0-1.2,0.2-2.1,0.6-2.7c0.4-0.6,0.9-0.9,1.7-0.9c0.9,0,1.6,0.3,2,0.8s0.6,1.5,0.6,2.8v0.3
		c-0.1,1.1-0.3,2-0.6,2.5c-0.4,0.5-1,0.7-1.8,0.7C623.9,40.3,623.3,40,622.9,39.4 M639.3,42.6l4.6-12h-3.4l-2.3,6.9
		c-0.3,0.9-0.5,1.8-0.5,2.5h-0.1c-0.1-0.7-0.2-1.6-0.5-2.5l-2.3-6.9h-3.4l4.6,12H639.3 M646.8,29.2c0.6,0,1-0.1,1.3-0.4
		s0.5-0.7,0.5-1.2c0-1.1-0.6-1.6-1.8-1.6s-1.8,0.5-1.8,1.6C645,28.6,645.6,29.2,646.8,29.2 M648.4,30.6h-3.2v12h3.2V30.6
		 M658.3,42.7c0.5-0.1,1.1-0.3,1.6-0.7v-2.8c-0.5,0.3-1.1,0.6-1.6,0.8s-1.1,0.3-1.8,0.3c-1.7,0-2.6-1.1-2.6-3.5s0.9-3.6,2.6-3.6
		c0.5,0,0.9,0.1,1.3,0.2c0.5,0.1,0.9,0.3,1.4,0.5l0.9-2.6c-1.1-0.5-2.4-0.8-3.7-0.8c-1.9,0-3.4,0.5-4.4,1.6c-1,1.1-1.6,2.6-1.6,4.7
		c0,4.1,1.9,6.1,5.6,6.1C657.1,42.9,657.7,42.9,658.3,42.7 M668.9,33.4c0.4,0.5,0.6,1.1,0.6,1.9h-4.6c0.1-0.8,0.3-1.4,0.7-1.9
		s0.9-0.7,1.6-0.7C667.8,32.7,668.5,33,668.9,33.4 M670,42.6c0.7-0.1,1.3-0.3,1.8-0.6v-2.6c-0.7,0.3-1.3,0.5-2,0.7
		c-0.7,0.1-1.3,0.2-2,0.2c-0.9,0-1.6-0.3-2.2-0.8c-0.5-0.5-0.8-1.3-0.8-2.2h7.7v-1.6c0-1.7-0.5-3-1.4-4c-0.9-0.9-2.3-1.5-4-1.5
		c-1.8,0-3.2,0.5-4.2,1.6s-1.5,2.6-1.5,4.7c0,2,0.5,3.4,1.6,4.5s2.6,1.6,4.5,1.6C668.6,42.9,669.4,42.8,670,42.6"/>
	<path vector-effect="none" class="st0" d="M529.3,42.7c0.5-0.1,1.1-0.3,1.6-0.7v-2.8c-0.5,0.3-1.1,0.6-1.6,0.8s-1.1,0.3-1.8,0.3
		c-1.7,0-2.6-1.1-2.6-3.5s0.9-3.6,2.6-3.6c0.5,0,0.9,0.1,1.3,0.2c0.5,0.1,0.9,0.3,1.4,0.5l0.9-2.6c-1.1-0.5-2.4-0.8-3.7-0.8
		c-1.9,0-3.4,0.5-4.4,1.6c-1,1.1-1.6,2.6-1.6,4.7c0,4.1,1.9,6.1,5.6,6.1C528,42.9,528.7,42.9,529.3,42.7 M534.8,29.2
		c0.6,0,1-0.1,1.3-0.4s0.5-0.7,0.5-1.2c0-1.1-0.6-1.6-1.8-1.6s-1.8,0.5-1.8,1.6C533,28.6,533.6,29.2,534.8,29.2 M536.5,30.6h-3.2v12
		h3.2V30.6 M543.4,40c-0.3-0.2-0.4-0.5-0.4-1v-5.8h3.4v-2.5H543v-2.6h-2.1l-0.9,2.6l-1.8,1.1v1.4h1.6V39c0,1.3,0.3,2.3,0.9,3
		c0.6,0.7,1.6,1,2.8,1s2.2-0.2,3-0.5V40c-0.8,0.3-1.5,0.4-2,0.4C544,40.3,543.7,40.2,543.4,40 M550.2,29.2c0.6,0,1-0.1,1.3-0.4
		s0.5-0.7,0.5-1.2c0-1.1-0.6-1.6-1.8-1.6s-1.8,0.5-1.8,1.6C548.4,28.6,548.9,29.2,550.2,29.2 M551.8,30.6h-3.2v12h3.2V30.6
		 M563.1,40.2h-5.6l5.4-7.4v-2.2H554v2.5h5.2l-5.5,7.6v2h9.4L563.1,40.2 M571.6,33.4c0.4,0.5,0.6,1.1,0.6,1.9h-4.6
		c0.1-0.8,0.3-1.4,0.7-1.9s0.9-0.7,1.6-0.7C570.7,32.7,571.2,33,571.6,33.4 M572.8,42.6c0.7-0.1,1.3-0.3,1.8-0.6v-2.6
		c-0.7,0.3-1.3,0.5-2,0.7c-0.7,0.1-1.3,0.2-2,0.2c-0.9,0-1.6-0.3-2.2-0.8c-0.5-0.5-0.8-1.3-0.8-2.2h7.7v-1.6c0-1.7-0.5-3-1.4-4
		c-0.9-0.9-2.2-1.5-4-1.5s-3.2,0.5-4.2,1.6s-1.5,2.6-1.5,4.7c0,2,0.5,3.4,1.6,4.5s2.6,1.6,4.5,1.6C571.3,42.9,572.1,42.8,572.8,42.6
		 M588.6,34.8c0-1.4-0.3-2.5-1.1-3.3c-0.7-0.7-1.8-1.1-3.2-1.1c-0.8,0-1.6,0.1-2.2,0.5c-0.6,0.3-1.1,0.7-1.5,1.3h-0.2l-0.4-1.6h-2.5
		v12h3.2V37c0-1.4,0.2-2.4,0.6-3c0.4-0.6,1.1-0.9,2-0.9c0.7,0,1.1,0.2,1.5,0.7c0.3,0.4,0.5,1.1,0.5,2v7h3.2v-8 M599.5,37.6
		c-0.2-0.4-0.5-0.8-0.9-1.1s-1.1-0.7-2-1.1c-1.1-0.4-1.8-0.7-2-0.9c-0.3-0.2-0.5-0.5-0.5-0.7c0-0.5,0.5-0.8,1.4-0.8
		c0.5,0,1.1,0.1,1.6,0.3c0.5,0.1,1.1,0.4,1.7,0.6l1-2.4c-1.3-0.6-2.8-0.9-4.2-0.9c-1.5,0-2.7,0.3-3.5,0.9s-1.2,1.4-1.2,2.5
		c0,0.6,0.1,1.1,0.3,1.6c0.2,0.4,0.5,0.8,0.9,1.1s1.1,0.7,2,1.1c0.7,0.3,1.1,0.5,1.6,0.7c0.4,0.2,0.7,0.4,0.8,0.5s0.2,0.4,0.2,0.6
		c0,0.7-0.6,1-1.8,1c-0.6,0-1.3-0.1-2-0.3s-1.4-0.4-2-0.7v2.7c0.5,0.2,1.1,0.4,1.8,0.5c0.6,0.1,1.3,0.2,2.2,0.2c1.7,0,3-0.3,3.8-0.9
		c0.9-0.7,1.3-1.6,1.3-2.8C599.9,38.5,599.7,38,599.5,37.6"/>
</g>
<path vector-effect="none" class="st0" d="M486,103h428v52H486V103"/>
<path vector-effect="none" class="st3" d="M486,103h428v1H486V103"/>
<path vector-effect="none" class="st3" d="M486,154h428v1H486V154"/>
<path vector-effect="none" class="st3" d="M486,103h1v52h-1V103"/>
<path vector-effect="none" class="st3" d="M913,103h1v52h-1V103"/>
<path vector-effect="none" class="st4" d="M487,104h426v50H487V104"/>
<path vector-effect="none" class="st3" d="M486,469h428v1H486V469"/>
<path vector-effect="none" class="st3" d="M486,154.8h1V470h-1V154.8"/>
<path vector-effect="none" class="st3" d="M913,154.8h1V470h-1V154.8"/>
<text transform="matrix(1 0 0 1 499 136)" class="st5 st6 st7">In this section</text>
<path vector-effect="none" class="st2" d="M487.5,553.2H914v241.2H487.5V553.2"/>
<rect x="487.5" y="500.3" class="st2" width="108.5" height="22.7"/>
<path class="st5" d="M892.2,127.8v2.3c0,0.3-0.1,0.6-0.3,0.8s-0.5,0.3-0.8,0.3h-14.8c-0.3,0-0.6-0.1-0.8-0.3s-0.3-0.5-0.3-0.8v-2.3
	c0-0.3,0.1-0.6,0.3-0.8c0.2-0.2,0.5-0.3,0.8-0.3H891c0.3,0,0.6,0.1,0.8,0.3C892.1,127.2,892.2,127.5,892.2,127.8z"/>
<text transform="matrix(1 0 0 1 499.2188 187.3438)" class="st5 st8 st9">Section heading</text>
<text transform="matrix(1 0 0 1 499.2188 233.3438)" class="st10 st11 st12">Current page</text>
<text transform="matrix(1 0 0 1 499.2188 276.3438)" class="st13 st11 st12">Sibling page</text>
<text transform="matrix(1 0 0 1 499.2188 319.3436)" class="st13 st11 st12">Sibling page</text>
<text transform="matrix(1 0 0 1 499.2188 362.3436)" class="st13 st11 st12">Sibling page</text>
<text transform="matrix(1 0 0 1 499.2188 405.3436)" class="st13 st11 st12">Sibling page</text>
<text transform="matrix(1 0 0 1 499.2188 448.3436)" class="st13 st11 st12">Sibling page</text>
</svg>
