<?xml version="1.0" encoding="UTF-8"?>
<svg id="svg2" xmlns:rdf="http://www.w3.org/1999/02/22-rdf-syntax-ns#" xmlns="http://www.w3.org/2000/svg" height="16" width="10" version="1.1" xmlns:dc="http://purl.org/dc/elements/1.1/" viewBox="0 0 10 16">
 <path id="path103" d="m5.829 8.311q0 0.11566-0.088973 0.20466l-4.1463 4.1463q-0.089 0.089-0.2047 0.089-0.11569 0-0.20466-0.08898l-0.44483-0.445q-0.08897-0.089-0.08897-0.205 0-0.1157 0.088973-0.20467l3.4967-3.496-3.4967-3.4968q-0.089-0.089-0.089-0.2047 0-0.11569 0.088973-0.20466l0.44486-0.44489q0.088973-0.088973 0.20466-0.088973t0.20466 0.088973l4.1463 4.1463q0.088973 0.088966 0.088973 0.20466zm3.4167 0q0 0.11566-0.088973 0.20466l-4.1463 4.1463q-0.089 0.089-0.2046 0.089-0.11566 0-0.20466-0.08898l-0.4449-0.445q-0.088973-0.08898-0.088973-0.20466 0-0.1157 0.088973-0.20467l3.4968-3.497-3.4968-3.4968q-0.088973-0.088973-0.088973-0.20467 0-0.11569 0.088973-0.20466l0.44486-0.44489q0.088973-0.088973 0.20466-0.088973t0.20466 0.088973l4.1463 4.1463q0.088972 0.088966 0.088972 0.20466z" fill-opacity=".94118" fill="#c4c4cf"/>
</svg>