<?xml version="1.0" encoding="utf-8"?>
<!-- Generator: Adobe Illustrator 15.0.0, SVG Export Plug-In  -->
<!DOCTYPE svg PUBLIC "-//W3C//DTD SVG 1.1//EN" "http://www.w3.org/Graphics/SVG/1.1/DTD/svg11.dtd" [
	<!ENTITY ns_flows "http://ns.adobe.com/Flows/1.0/">
]>
<svg version="1.1"
	 xmlns="http://www.w3.org/2000/svg" xmlns:xlink="http://www.w3.org/1999/xlink" xmlns:a="http://ns.adobe.com/AdobeSVGViewerExtensions/3.0/"
	 x="0px" y="0px" width="200px" height="34px" viewBox="-1.04 -1.387 200 34"
	 overflow="visible" enable-background="new -1.04 -1.387 200 34" xml:space="preserve">
<defs>
</defs>
<path fill="#004B88" d="M28.896,14.624c0,8.961-7.566,16.392-15.327,16.392c-0.012,0,0.892-2.377,0.878-2.377
	C6.468,28.64,0,22.702,0,14.624C0,6.547,6.468,0,14.447,0C22.427,0,28.896,6.547,28.896,14.624"/>
<path fill="#004B88" d="M138.807,23.189v-8.571c0-1.534-0.458-2.678-1.375-3.429c-0.915-0.752-2.233-1.128-3.951-1.128
	c-1.795,0-3.427,0.389-4.902,1.163l1.156,2.371c1.382-0.622,2.585-0.933,3.608-0.933c1.328,0,1.992,0.652,1.992,1.957v0.564
	l-2.22,0.069c-1.918,0.069-3.353,0.427-4.303,1.076c-0.952,0.648-1.426,1.656-1.426,3.021c0,1.304,0.353,2.309,1.058,3.015
	c0.708,0.706,1.674,1.058,2.905,1.058c1,0,1.812-0.143,2.435-0.432c0.621-0.288,1.225-0.802,1.814-1.548h0.091l0.676,1.749
	L138.807,23.189L138.807,23.189z M135.336,18.289c0,0.775-0.241,1.397-0.727,1.864c-0.485,0.469-1.131,0.702-1.942,0.702
	c-1.128,0-1.695-0.495-1.695-1.484c0-0.69,0.248-1.204,0.744-1.541c0.498-0.338,1.253-0.522,2.268-0.554l1.351-0.046V18.289
	L135.336,18.289z M149.151,21.522h0.149l0.676,1.667h2.682V5.286h-3.507v4.119c0,0.752,0.088,1.607,0.265,2.567h-0.115
	c-0.847-1.258-2.077-1.888-3.687-1.888c-1.535,0-2.739,0.588-3.615,1.766c-0.873,1.177-1.312,2.821-1.312,4.931
	c0,2.079,0.429,3.705,1.288,4.878c0.86,1.173,2.042,1.76,3.545,1.76C147.146,23.42,148.358,22.788,149.151,21.522 M144.878,19.675
	c-0.435-0.632-0.652-1.582-0.652-2.849c0-1.265,0.217-2.23,0.647-2.893c0.433-0.664,1.037-0.996,1.815-0.996
	c0.956,0,1.645,0.299,2.068,0.898c0.423,0.597,0.636,1.588,0.636,2.968v0.38c-0.038,1.25-0.265,2.136-0.682,2.659
	c-0.415,0.52-1.072,0.781-1.963,0.781C145.938,20.624,145.314,20.308,144.878,19.675 M162.475,23.189l4.876-12.863h-3.653
	l-2.463,7.33c-0.304,1.021-0.477,1.898-0.514,2.634h-0.068c-0.07-0.829-0.241-1.706-0.516-2.634l-2.475-7.33h-3.654l4.878,12.863
	H162.475z M170.47,8.726c0.633,0,1.109-0.151,1.426-0.454c0.317-0.303,0.475-0.726,0.475-1.271c0-1.143-0.633-1.714-1.901-1.714
	c-1.268,0-1.902,0.572-1.902,1.714C168.567,8.152,169.202,8.726,170.47,8.726 M172.21,10.327h-3.493V23.19h3.493V10.327z
	 M182.791,23.213c0.577-0.137,1.147-0.387,1.712-0.748v-3.003c-0.573,0.384-1.146,0.666-1.719,0.845
	c-0.573,0.181-1.193,0.271-1.865,0.271c-1.818,0-2.727-1.257-2.727-3.773c0-2.593,0.908-3.889,2.727-3.889
	c0.472,0,0.945,0.071,1.42,0.213c0.471,0.142,0.984,0.325,1.533,0.547l1.031-2.716c-1.175-0.582-2.504-0.874-3.984-0.874
	c-2.025,0-3.578,0.577-4.662,1.732c-1.085,1.154-1.628,2.824-1.628,5.011c0,4.396,1.996,6.592,5.981,6.592
	C181.486,23.42,182.212,23.351,182.791,23.213 M194.067,13.289c0.436,0.472,0.66,1.141,0.677,2.007h-4.903
	c0.061-0.867,0.302-1.536,0.722-2.007c0.418-0.472,1.002-0.708,1.742-0.708C193.043,12.581,193.631,12.817,194.067,13.289
	 M195.338,23.196c0.696-0.15,1.348-0.377,1.959-0.685v-2.715c-0.748,0.354-1.466,0.61-2.152,0.772
	c-0.688,0.161-1.417,0.241-2.189,0.241c-0.992,0-1.764-0.28-2.313-0.839c-0.548-0.561-0.843-1.34-0.881-2.337h8.259V15.93
	c0-1.825-0.506-3.255-1.511-4.292c-1.008-1.036-2.419-1.553-4.229-1.553c-1.895,0-3.378,0.588-4.45,1.766
	c-1.073,1.178-1.609,2.845-1.609,5c0,2.095,0.581,3.714,1.742,4.855c1.16,1.145,2.772,1.715,4.834,1.715
	C193.796,23.42,194.644,23.346,195.338,23.196"/>
<path fill="#004B88" d="M44.677,23.213c0.577-0.137,1.148-0.387,1.713-0.748v-3.003c-0.573,0.384-1.146,0.666-1.718,0.845
	c-0.573,0.181-1.195,0.271-1.867,0.271c-1.817,0-2.727-1.258-2.727-3.773c0-2.594,0.91-3.89,2.727-3.89
	c0.473,0,0.947,0.071,1.42,0.212c0.474,0.143,0.985,0.326,1.535,0.548l1.031-2.716c-1.176-0.583-2.504-0.874-3.986-0.874
	c-2.024,0-3.579,0.577-4.663,1.731c-1.084,1.154-1.627,2.825-1.627,5.011c0,4.395,1.994,6.592,5.98,6.592
	C43.373,23.42,44.1,23.351,44.677,23.213 M50.64,8.726c0.633,0,1.109-0.151,1.426-0.454c0.316-0.303,0.475-0.726,0.475-1.271
	c0-1.143-0.633-1.714-1.901-1.714s-1.901,0.571-1.901,1.714C48.738,8.152,49.372,8.726,50.64,8.726 M52.38,10.326h-3.493v12.863
	h3.493V10.326z M59.867,20.268c-0.278-0.237-0.417-0.606-0.417-1.104v-6.203h3.584v-2.635h-3.584V7.587h-2.234l-1.008,2.716
	l-1.924,1.174v1.484h1.673v6.202c0,1.418,0.318,2.483,0.956,3.192c0.639,0.709,1.656,1.064,3.053,1.064
	c1.267,0,2.335-0.194,3.207-0.586v-2.611c-0.854,0.269-1.588,0.402-2.199,0.402C60.515,20.624,60.145,20.506,59.867,20.268
	 M67.043,8.726c0.634,0,1.11-0.151,1.427-0.454c0.317-0.303,0.476-0.726,0.476-1.271c0-1.143-0.634-1.714-1.902-1.714
	c-1.267,0-1.901,0.571-1.901,1.714C65.142,8.152,65.776,8.726,67.043,8.726 M68.784,10.326H65.29v12.863h3.494V10.326z
	 M80.893,20.509h-5.98l5.773-7.905v-2.278h-9.553v2.681h5.579l-5.933,8.113v2.069h10.115L80.893,20.509L80.893,20.509z
	 M90.022,13.29c0.437,0.472,0.661,1.141,0.676,2.007h-4.903c0.06-0.866,0.301-1.536,0.722-2.007c0.42-0.473,1-0.708,1.74-0.708
	C88.999,12.581,89.586,12.817,90.022,13.29 M91.293,23.196c0.696-0.15,1.347-0.377,1.959-0.685v-2.715
	c-0.748,0.354-1.466,0.61-2.153,0.772c-0.688,0.161-1.417,0.241-2.188,0.241c-0.993,0-1.764-0.28-2.313-0.841
	c-0.551-0.56-0.844-1.339-0.882-2.335h8.259V15.93c0-1.826-0.503-3.256-1.512-4.292c-1.008-1.036-2.417-1.553-4.228-1.553
	c-1.894,0-3.376,0.588-4.45,1.766c-1.073,1.177-1.609,2.844-1.609,5c0,2.095,0.581,3.713,1.742,4.855
	c1.16,1.144,2.771,1.715,4.833,1.715C89.751,23.42,90.598,23.346,91.293,23.196 M108.166,14.802c0-1.526-0.386-2.694-1.157-3.503
	c-0.771-0.808-1.902-1.213-3.391-1.213c-0.871,0-1.647,0.159-2.331,0.478c-0.682,0.318-1.22,0.789-1.609,1.41h-0.194l-0.47-1.646
	h-2.669v12.863h3.494v-6.052c0-1.518,0.216-2.605,0.651-3.261c0.438-0.656,1.142-0.984,2.121-0.984c0.717,0,1.242,0.232,1.568,0.695
	c0.329,0.465,0.492,1.161,0.492,2.089v7.513h3.496L108.166,14.802L108.166,14.802z M119.896,17.725
	c-0.222-0.461-0.565-0.867-1.031-1.22c-0.466-0.354-1.199-0.733-2.201-1.14c-1.122-0.453-1.849-0.795-2.183-1.025
	c-0.331-0.23-0.496-0.501-0.496-0.816c0-0.561,0.514-0.841,1.547-0.841c0.581,0,1.149,0.089,1.706,0.265
	c0.558,0.177,1.157,0.403,1.798,0.679l1.055-2.531c-1.458-0.675-2.958-1.013-4.502-1.013c-1.618,0-2.869,0.313-3.75,0.938
	c-0.882,0.625-1.323,1.509-1.323,2.653c0,0.666,0.106,1.229,0.316,1.685s0.545,0.861,1.007,1.214c0.462,0.353,1.185,0.736,2.17,1.15
	c0.688,0.292,1.238,0.546,1.649,0.765c0.414,0.219,0.703,0.415,0.871,0.586c0.168,0.173,0.252,0.397,0.252,0.673
	c0,0.737-0.633,1.105-1.901,1.105c-0.62,0-1.335-0.104-2.148-0.312c-0.813-0.206-1.544-0.464-2.193-0.771v2.9
	c0.574,0.246,1.188,0.431,1.845,0.557c0.655,0.126,1.45,0.19,2.383,0.19c1.817,0,3.183-0.344,4.094-1.035
	c0.913-0.69,1.369-1.695,1.369-3.015C120.228,18.734,120.116,18.186,119.896,17.725"/>
</svg>
