<?xml version="1.0" encoding="utf-8"?>
<!-- Generator: Adobe Illustrator 15.0.0, SVG Export Plug-In  -->
<!DOCTYPE svg PUBLIC "-//W3C//DTD SVG 1.1//EN" "http://www.w3.org/Graphics/SVG/1.1/DTD/svg11.dtd" [
	<!ENTITY ns_flows "http://ns.adobe.com/Flows/1.0/">
]>
<svg version="1.1"
	 xmlns="http://www.w3.org/2000/svg" xmlns:xlink="http://www.w3.org/1999/xlink" xmlns:a="http://ns.adobe.com/AdobeSVGViewerExtensions/3.0/"
	 x="0px" y="0px" width="280px" height="60px" viewBox="-2.553 -4.634 280 60"
	 overflow="visible" enable-background="new -2.553 -4.634 280 60" xml:space="preserve">
<defs>
</defs>
<path fill="#004B88" d="M40.033,20.261c0,12.417-10.483,22.715-21.234,22.715c-0.017,0,1.235-3.297,1.217-3.297
	C8.962,39.681,0,31.455,0,20.261C0,9.071,8.962,0,20.016,0C31.072,0,40.033,9.071,40.033,20.261"/>
<path fill="#004B88" d="M192.305,32.131V20.252c0-2.125-0.636-3.709-1.905-4.75c-1.269-1.042-3.093-1.562-5.474-1.562
	c-2.487,0-4.749,0.538-6.791,1.611l1.602,3.283c1.915-0.861,3.582-1.292,4.999-1.292c1.839,0,2.761,0.903,2.761,2.71v0.783
	l-3.075,0.095c-2.658,0.096-4.645,0.592-5.962,1.49c-1.318,0.898-1.976,2.293-1.976,4.186c0,1.808,0.488,3.199,1.466,4.178
	c0.979,0.978,2.319,1.465,4.024,1.465c1.386,0,2.51-0.198,3.372-0.598c0.862-0.398,1.699-1.113,2.515-2.145h0.127l0.936,2.423
	L192.305,32.131L192.305,32.131z M187.497,25.339c0,1.075-0.336,1.937-1.008,2.583c-0.673,0.65-1.566,0.974-2.69,0.974
	c-1.563,0-2.348-0.686-2.348-2.057c0-0.956,0.343-1.669,1.03-2.138c0.689-0.468,1.736-0.724,3.143-0.766l1.873-0.064V25.339
	L187.497,25.339z M206.636,29.821h0.206l0.936,2.31h3.716V7.324h-4.857v5.707c0,1.042,0.121,2.227,0.366,3.557h-0.159
	c-1.173-1.743-2.877-2.615-5.108-2.615c-2.126,0-3.794,0.815-5.007,2.447c-1.21,1.632-1.817,3.908-1.817,6.832
	c0,2.882,0.594,5.136,1.784,6.761c1.191,1.626,2.828,2.438,4.912,2.438C203.859,32.449,205.538,31.572,206.636,29.821
	 M200.716,27.261c-0.603-0.875-0.903-2.193-0.903-3.948c0-1.752,0.301-3.089,0.896-4.008c0.599-0.919,1.437-1.379,2.516-1.379
	c1.323,0,2.278,0.414,2.863,1.245c0.588,0.828,0.882,2.2,0.882,4.113v0.525c-0.053,1.733-0.367,2.962-0.943,3.686
	c-0.576,0.721-1.486,1.082-2.721,1.082C202.183,28.576,201.32,28.138,200.716,27.261 M225.095,32.131l6.756-17.824h-5.062
	l-3.412,10.155c-0.422,1.416-0.66,2.632-0.712,3.652h-0.094c-0.097-1.148-0.334-2.366-0.716-3.652l-3.428-10.155h-5.062
	l6.758,17.824H225.095z M236.17,12.09c0.879,0,1.537-0.21,1.977-0.629c0.44-0.419,0.658-1.005,0.658-1.762
	c0-1.583-0.877-2.375-2.635-2.375c-1.756,0-2.634,0.792-2.634,2.375C233.537,11.294,234.415,12.09,236.17,12.09 M238.583,14.307
	h-4.839v17.825h4.839V14.307z M253.239,32.163c0.8-0.189,1.59-0.536,2.373-1.035v-4.161c-0.794,0.532-1.589,0.923-2.382,1.171
	c-0.793,0.251-1.654,0.375-2.584,0.375c-2.52,0-3.777-1.742-3.777-5.229c0-3.592,1.258-5.388,3.777-5.388
	c0.654,0,1.311,0.099,1.968,0.295c0.652,0.197,1.363,0.449,2.124,0.757l1.429-3.762c-1.629-0.807-3.47-1.212-5.521-1.212
	c-2.807,0-4.958,0.8-6.459,2.399c-1.503,1.599-2.254,3.913-2.254,6.942c0,6.092,2.765,9.135,8.285,9.135
	C251.433,32.449,252.44,32.354,253.239,32.163 M268.863,18.412c0.604,0.654,0.915,1.58,0.938,2.782h-6.794
	c0.084-1.202,0.419-2.128,1-2.782c0.581-0.654,1.388-0.98,2.415-0.98C267.444,17.431,268.261,17.758,268.863,18.412 M270.624,32.139
	c0.965-0.207,1.868-0.521,2.716-0.947v-3.763c-1.038,0.489-2.032,0.847-2.984,1.069c-0.953,0.224-1.963,0.334-3.033,0.334
	c-1.372,0-2.442-0.388-3.204-1.162c-0.76-0.778-1.168-1.857-1.222-3.24h11.443v-2.359c0-2.528-0.699-4.51-2.095-5.946
	c-1.396-1.435-3.35-2.151-5.857-2.151c-2.624,0-4.679,0.815-6.166,2.446c-1.486,1.632-2.229,3.941-2.229,6.927
	c0,2.904,0.806,5.146,2.412,6.727c1.61,1.586,3.843,2.377,6.699,2.377C268.488,32.449,269.663,32.346,270.624,32.139"/>
<path fill="#004B88" d="M61.898,32.163c0.798-0.189,1.591-0.536,2.374-1.035v-4.161c-0.794,0.532-1.587,0.923-2.381,1.171
	c-0.793,0.251-1.655,0.375-2.587,0.375c-2.517,0-3.778-1.742-3.778-5.229c0-3.594,1.26-5.389,3.778-5.389
	c0.656,0,1.312,0.099,1.968,0.293c0.656,0.197,1.365,0.451,2.126,0.759l1.429-3.762c-1.629-0.809-3.471-1.212-5.523-1.212
	c-2.804,0-4.958,0.8-6.459,2.399c-1.503,1.6-2.254,3.913-2.254,6.942c0,6.092,2.762,9.135,8.285,9.135
	C60.091,32.449,61.099,32.354,61.898,32.163 M70.158,12.09c0.877,0,1.537-0.21,1.976-0.629c0.438-0.42,0.659-1.006,0.659-1.761
	c0-1.584-0.877-2.375-2.635-2.375c-1.756,0-2.634,0.792-2.634,2.375C67.524,11.294,68.403,12.09,70.158,12.09 M72.57,14.307h-4.84
	v17.824h4.84V14.307z M82.942,28.083c-0.386-0.33-0.579-0.84-0.579-1.529v-8.596h4.966v-3.651h-4.966v-3.795h-3.095l-1.396,3.763
	L75.206,15.9v2.057h2.317v8.595c0,1.965,0.441,3.44,1.324,4.423c0.884,0.983,2.293,1.475,4.23,1.475
	c1.756,0,3.235-0.271,4.442-0.812v-3.619c-1.184,0.373-2.201,0.558-3.047,0.558C83.839,28.576,83.328,28.412,82.942,28.083
	 M92.884,12.09c0.878,0,1.538-0.21,1.977-0.629c0.439-0.42,0.658-1.006,0.658-1.761c0-1.584-0.877-2.375-2.635-2.375
	c-1.755,0-2.633,0.792-2.633,2.375C90.251,11.294,91.129,12.09,92.884,12.09 M95.296,14.307h-4.84v17.824h4.84V14.307z
	 M112.072,28.417h-8.285l7.999-10.954v-3.157H98.55v3.715h7.729l-8.22,11.241v2.868h14.014L112.072,28.417L112.072,28.417z
	 M124.72,18.412c0.604,0.653,0.916,1.581,0.936,2.781h-6.792c0.083-1.201,0.417-2.128,1-2.781c0.582-0.655,1.385-0.981,2.412-0.981
	C123.302,17.431,124.117,17.758,124.72,18.412 M126.481,32.139c0.964-0.207,1.867-0.521,2.714-0.947v-3.763
	c-1.037,0.489-2.032,0.847-2.983,1.069c-0.952,0.224-1.963,0.334-3.03,0.334c-1.376,0-2.445-0.388-3.207-1.164
	c-0.762-0.776-1.169-1.855-1.222-3.238h11.442v-2.36c0-2.529-0.698-4.511-2.095-5.946s-3.349-2.151-5.857-2.151
	c-2.624,0-4.678,0.815-6.166,2.447c-1.485,1.632-2.229,3.941-2.229,6.927c0,2.903,0.805,5.146,2.413,6.728
	c1.607,1.586,3.839,2.376,6.695,2.376C124.345,32.449,125.519,32.346,126.481,32.139 M149.857,20.508
	c0-2.115-0.535-3.733-1.604-4.855c-1.068-1.119-2.636-1.681-4.698-1.681c-1.206,0-2.282,0.22-3.229,0.662
	c-0.944,0.441-1.689,1.092-2.228,1.953h-0.27l-0.65-2.28h-3.698v17.824h4.839v-8.387c0-2.103,0.3-3.61,0.904-4.518
	c0.606-0.909,1.581-1.363,2.938-1.363c0.994,0,1.721,0.321,2.172,0.964c0.456,0.645,0.682,1.608,0.682,2.894v10.411h4.843
	L149.857,20.508L149.857,20.508z M166.108,24.558c-0.308-0.639-0.783-1.201-1.429-1.69c-0.645-0.49-1.66-1.016-3.049-1.579
	c-1.555-0.627-2.562-1.101-3.024-1.419c-0.459-0.319-0.688-0.695-0.688-1.131c0-0.776,0.713-1.165,2.145-1.165
	c0.804,0,1.593,0.124,2.363,0.367c0.772,0.246,1.603,0.558,2.491,0.941l1.461-3.507c-2.02-0.936-4.099-1.403-6.237-1.403
	c-2.243,0-3.975,0.434-5.197,1.299c-1.223,0.866-1.833,2.091-1.833,3.675c0,0.923,0.147,1.703,0.438,2.335
	c0.291,0.632,0.756,1.192,1.396,1.681c0.64,0.489,1.643,1.02,3.006,1.595c0.954,0.404,1.716,0.757,2.285,1.062
	c0.573,0.304,0.974,0.576,1.207,0.812c0.233,0.24,0.349,0.551,0.349,0.933c0,1.022-0.877,1.531-2.634,1.531
	c-0.859,0-1.85-0.144-2.977-0.431c-1.127-0.287-2.14-0.643-3.039-1.068v4.019c0.795,0.34,1.647,0.598,2.556,0.771
	c0.908,0.176,2.008,0.264,3.3,0.264c2.518,0,4.41-0.478,5.672-1.435c1.266-0.956,1.897-2.348,1.897-4.177
	C166.568,25.958,166.414,25.196,166.108,24.558"/>
</svg>
