<?xml version="1.0" encoding="utf-8"?>
<!-- Generator: Adobe Illustrator 15.0.0, SVG Export Plug-In  -->
<!DOCTYPE svg PUBLIC "-//W3C//DTD SVG 1.1//EN" "http://www.w3.org/Graphics/SVG/1.1/DTD/svg11.dtd" [
	<!ENTITY ns_flows "http://ns.adobe.com/Flows/1.0/">
]>
<svg version="1.1"
	 xmlns="http://www.w3.org/2000/svg" xmlns:xlink="http://www.w3.org/1999/xlink" xmlns:a="http://ns.adobe.com/AdobeSVGViewerExtensions/3.0/"
	 x="0px" y="0px" width="100px" height="100px" viewBox="-3.693 -0.948 100 100"
	 overflow="visible" enable-background="new -3.693 -0.948 100 100" xml:space="preserve">
<defs>
</defs>
<path fill="#FFFFFF" d="M92.613,46.249c0,28.343-24.249,51.854-49.125,51.854c-0.039,0,2.857-7.522,2.82-7.522
	C20.732,90.581,0,71.79,0,46.249C0,20.707,20.732,0,46.309,0C71.88,0,92.613,20.707,92.613,46.249"/>
<path fill="#004B88" d="M71.331,61.519c0.53-0.113,1.026-0.287,1.492-0.52v-2.057c-0.569,0.267-1.115,0.462-1.639,0.584
	c-0.523,0.121-1.08,0.184-1.666,0.184c-0.756,0-1.344-0.212-1.762-0.636c-0.418-0.427-0.643-1.017-0.67-1.771h6.285v-1.292
	c0-1.384-0.383-2.47-1.15-3.253c-0.766-0.784-1.839-1.178-3.219-1.178c-1.441,0-2.57,0.446-3.387,1.34
	c-0.816,0.892-1.227,2.154-1.227,3.787c0,1.588,0.443,2.815,1.327,3.681c0.882,0.868,2.11,1.3,3.68,1.3
	C70.158,61.688,70.804,61.633,71.331,61.519 M70.364,54.011c0.332,0.356,0.502,0.864,0.516,1.521h-3.734
	c0.046-0.656,0.23-1.164,0.551-1.521c0.318-0.357,0.762-0.539,1.324-0.539C69.585,53.472,70.032,53.653,70.364,54.011
	 M61.779,61.531c0.438-0.104,0.872-0.293,1.302-0.566v-2.275c-0.436,0.29-0.872,0.504-1.308,0.641
	c-0.437,0.136-0.909,0.205-1.421,0.205c-1.384,0-2.075-0.954-2.075-2.862c0-1.965,0.691-2.946,2.075-2.946
	c0.361,0,0.719,0.055,1.082,0.161c0.359,0.107,0.75,0.246,1.168,0.416l0.785-2.061c-0.896-0.441-1.908-0.662-3.035-0.662
	c-1.542,0-2.725,0.438-3.551,1.312c-0.824,0.875-1.236,2.141-1.236,3.798c0,3.332,1.517,4.997,4.552,4.997
	C60.786,61.688,61.339,61.638,61.779,61.531 M53.725,51.764h-2.66v9.752h2.66V51.764z M52.399,50.553
	c0.482,0,0.844-0.115,1.085-0.345s0.362-0.551,0.362-0.965c0-0.865-0.482-1.298-1.447-1.298s-1.449,0.433-1.449,1.298
	C50.95,50.116,51.435,50.553,52.399,50.553 M46.312,61.516l3.715-9.752h-2.781l-1.874,5.557c-0.234,0.772-0.366,1.438-0.395,1.997
	h-0.052c-0.053-0.628-0.184-1.294-0.394-1.997l-1.883-5.557h-2.781l3.714,9.752H46.312z M32.916,58.85
	c-0.33-0.479-0.497-1.199-0.497-2.158s0.164-1.69,0.493-2.192c0.329-0.504,0.788-0.754,1.382-0.754c0.727,0,1.251,0.226,1.574,0.68
	c0.323,0.452,0.483,1.202,0.483,2.248v0.29c-0.028,0.947-0.201,1.618-0.519,2.015c-0.317,0.395-0.815,0.592-1.495,0.592
	C33.721,59.569,33.247,59.33,32.916,58.85 M36.169,60.249h0.114l0.514,1.267h2.039v-13.57h-2.667v3.121
	c0,0.571,0.067,1.219,0.199,1.944h-0.085c-0.646-0.953-1.583-1.43-2.809-1.43c-1.17,0-2.087,0.446-2.752,1.34
	c-0.665,0.892-0.999,2.137-0.999,3.735c0,1.576,0.328,2.809,0.981,3.698c0.655,0.89,1.555,1.334,2.7,1.334
	C34.644,61.688,35.564,61.21,36.169,60.249 M25.65,57.799c0,0.588-0.184,1.058-0.554,1.413c-0.368,0.354-0.86,0.532-1.478,0.532
	c-0.861,0-1.292-0.375-1.292-1.126c0-0.522,0.189-0.912,0.568-1.168c0.377-0.256,0.952-0.396,1.726-0.418l1.029-0.035V57.799z
	 M28.293,61.516v-6.497c0-1.164-0.349-2.03-1.047-2.601c-0.695-0.569-1.7-0.854-3.008-0.854c-1.366,0-2.61,0.296-3.734,0.881
	l0.883,1.797c1.052-0.472,1.968-0.707,2.747-0.707c1.01,0,1.517,0.494,1.517,1.484v0.427l-1.691,0.052
	c-1.461,0.052-2.55,0.324-3.275,0.815c-0.723,0.492-1.085,1.253-1.085,2.29c0,0.988,0.269,1.749,0.806,2.285
	c0.539,0.533,1.275,0.801,2.212,0.801c0.761,0,1.378-0.108,1.853-0.327c0.474-0.217,0.935-0.607,1.383-1.173h0.07l0.514,1.327
	H28.293z"/>
<path fill="#004B88" d="M78.1,39.109c-0.167-0.349-0.431-0.657-0.786-0.925c-0.353-0.267-0.91-0.555-1.673-0.862
	c-0.854-0.344-1.408-0.603-1.661-0.777c-0.252-0.175-0.381-0.381-0.381-0.62c0-0.424,0.395-0.636,1.18-0.636
	c0.439,0,0.873,0.066,1.299,0.201c0.424,0.134,0.881,0.305,1.369,0.514l0.803-1.918c-1.111-0.513-2.254-0.768-3.428-0.768
	c-1.234,0-2.185,0.236-2.855,0.71c-0.674,0.475-1.012,1.145-1.012,2.011c0,0.506,0.082,0.932,0.244,1.277
	c0.158,0.346,0.414,0.653,0.768,0.92c0.351,0.268,0.9,0.558,1.65,0.872c0.523,0.221,0.943,0.416,1.256,0.58
	c0.314,0.166,0.536,0.314,0.664,0.445c0.127,0.13,0.191,0.3,0.191,0.509c0,0.56-0.482,0.839-1.447,0.839
	c-0.471,0-1.016-0.079-1.635-0.236c-0.619-0.156-1.177-0.351-1.671-0.584v2.197c0.437,0.186,0.905,0.328,1.405,0.424
	c0.498,0.095,1.103,0.144,1.812,0.144c1.384,0,2.423-0.263,3.117-0.785c0.695-0.524,1.043-1.285,1.043-2.285
	C78.353,39.874,78.268,39.458,78.1,39.109 M69.169,36.895c0-1.158-0.293-2.042-0.881-2.657c-0.586-0.613-1.447-0.919-2.582-0.919
	c-0.66,0-1.254,0.12-1.773,0.36c-0.521,0.243-0.93,0.6-1.225,1.069h-0.149l-0.356-1.248h-2.033v9.75h2.66v-4.587
	c0-1.151,0.166-1.976,0.496-2.473c0.332-0.497,0.871-0.746,1.614-0.746c0.548,0,0.945,0.177,1.195,0.528s0.376,0.879,0.376,1.582
	v5.695h2.658V36.895z M56.325,43.256c0.526-0.113,1.023-0.286,1.489-0.518V40.68c-0.569,0.268-1.115,0.461-1.64,0.583
	c-0.522,0.123-1.078,0.184-1.666,0.184c-0.756,0-1.342-0.212-1.761-0.637c-0.419-0.424-0.642-1.014-0.673-1.771h6.289v-1.291
	c0-1.383-0.383-2.466-1.15-3.252c-0.768-0.784-1.841-1.177-3.219-1.177c-1.442,0-2.57,0.445-3.39,1.338
	c-0.814,0.893-1.224,2.155-1.224,3.789c0,1.588,0.441,2.813,1.326,3.681c0.884,0.866,2.11,1.3,3.68,1.3
	C55.149,43.427,55.796,43.369,56.325,43.256 M55.354,35.748c0.333,0.357,0.504,0.864,0.516,1.521h-3.732
	c0.046-0.657,0.229-1.165,0.551-1.521c0.318-0.358,0.762-0.537,1.324-0.537S55.024,35.39,55.354,35.748 M48.405,41.22h-4.554
	l4.396-5.991v-1.727h-7.273v2.033h4.246l-4.518,6.148v1.57h7.702V41.22z M39.187,33.501h-2.66v9.75h2.66V33.501z M37.86,32.291
	c0.482,0,0.845-0.116,1.087-0.346c0.239-0.229,0.36-0.551,0.36-0.963c0-0.866-0.482-1.3-1.447-1.3s-1.447,0.434-1.447,1.3
	C36.413,31.854,36.896,32.291,37.86,32.291 M32.397,41.037c-0.216-0.182-0.318-0.46-0.318-0.836v-4.702h2.729v-1.998h-2.729v-2.075
	h-1.701l-0.768,2.057l-1.465,0.89v1.125h1.273v4.702c0,1.075,0.244,1.882,0.729,2.419c0.485,0.538,1.26,0.807,2.323,0.807
	c0.966,0,1.778-0.148,2.441-0.445v-1.98c-0.65,0.204-1.208,0.306-1.673,0.306C32.89,41.307,32.609,41.217,32.397,41.037
	 M26.697,33.501h-2.659v9.75h2.659V33.501z M25.371,32.291c0.482,0,0.846-0.116,1.087-0.346s0.36-0.551,0.36-0.963
	c0-0.866-0.482-1.3-1.447-1.3s-1.447,0.434-1.447,1.3C23.924,31.854,24.406,32.291,25.371,32.291 M20.832,43.269
	c0.44-0.104,0.874-0.293,1.304-0.566v-2.277c-0.437,0.292-0.872,0.505-1.308,0.641c-0.438,0.137-0.91,0.206-1.422,0.206
	c-1.385,0-2.075-0.953-2.075-2.861c0-1.965,0.69-2.946,2.075-2.946c0.36,0,0.721,0.053,1.082,0.16
	c0.36,0.107,0.751,0.247,1.169,0.415l0.784-2.059c-0.896-0.442-1.907-0.662-3.035-0.662c-1.542,0-2.725,0.437-3.551,1.312
	c-0.825,0.876-1.235,2.141-1.235,3.797c0,3.332,1.516,4.998,4.551,4.998C19.839,43.427,20.394,43.375,20.832,43.269"/>
</svg>
