<?xml version="1.0" encoding="utf-8"?>
<!-- Generator: Adobe Illustrator 15.0.0, SVG Export Plug-In  -->
<!DOCTYPE svg PUBLIC "-//W3C//DTD SVG 1.1//EN" "http://www.w3.org/Graphics/SVG/1.1/DTD/svg11.dtd" [
	<!ENTITY ns_flows "http://ns.adobe.com/Flows/1.0/">
]>
<svg version="1.1"
	 xmlns="http://www.w3.org/2000/svg" xmlns:xlink="http://www.w3.org/1999/xlink" xmlns:a="http://ns.adobe.com/AdobeSVGViewerExtensions/3.0/"
	 x="0px" y="0px" width="454px" height="553px" viewBox="-85.371 -109.114 454 553"
	 overflow="visible" enable-background="new -85.371 -109.114 454 553" xml:space="preserve">
<defs>
</defs>
<path fill="#00548E" d="M141.311,160.989c-0.163-0.265-0.359-0.54-0.511-0.842c-0.686-1.345-1-1.525-2.433-1.004
	c-0.906,0.331-1.78,0.788-2.603,1.299c-0.82,0.507-1.549,1.116-2.43,1.573c-0.743,0.388-1.36,1.29-1.718,2.109
	c-0.638,1.455-1.041,3.017-1.541,4.533c-0.293,0.877-0.497,1.805-0.914,2.617c-0.235,0.46-0.798,0.771-1.254,1.087
	c-3.971,2.755-7.501,5.985-10.108,10.101c-2.099,3.314-3.818,6.852-4.971,10.642c-0.504,1.646-0.899,1.827-2.889,1.132
	c0.141-0.508,0.235-1.049,0.438-1.541c1.143-2.763,2.325-5.511,3.463-8.274c0.906-2.197,1.711-4.438,2.686-6.602
	c0.345-0.765,0.939-1.552,1.632-1.991c2.86-1.823,4.625-4.44,5.91-7.529c1.352-3.248,2.109-6.581,1.932-10.109
	c-0.043-0.909,0.435-1.568,0.968-2.207c0.96-1.146,1.875-2.334,2.897-3.422c1.439-1.53,1.747-3.434,2.07-5.396
	c0.504-3.053,1.15-6.079,1.733-9.115c0.134,0,0.264,0,0.398,0c0.301,0.407,0.653,0.784,0.892,1.222
	c1.791,3.246,4.419,5.751,7.03,8.286c2.455,2.388,4.847,4.846,7.247,7.29c0.352,0.358,0.602,0.82,0.969,1.323
	C147.239,157.78,144.324,159.357,141.311,160.989 M106.665,134.943c-0.271-0.772-0.717-1.482-1.145-2.346
	c1.371-1.692,1.87-3.597,1.791-5.67c0.707-0.065,1.44,0.018,2.042-0.229c0.624-0.258,1.116-0.838,1.798-1.382
	c0.547,1.668,1.715,2.604,3.187,3.198c0.671,0.272,0.606,0.881,0.718,1.429c0.602,2.89,1.106,5.805,1.849,8.654
	c0.453,1.735,1.218,3.4,1.965,5.038c0.355,0.777,0.366,1.347-0.214,1.955c-0.599,0.635-1.171,1.294-1.723,1.91
	c-2.295-0.138-4.23-1.065-6.17-2.012c-0.758-0.369-0.896-1.044-1.125-1.74C108.673,140.807,107.691,137.866,106.665,134.943
	 M272.899,444.07c-0.377-2.027-0.979-4.017-1.284-6.054c-0.591-3.928-1.468-7.846-1.105-11.859c0.156-1.729,0.874-3.278,1.878-4.688
	c2.229-3.129,1.2-8.578-2-10.645c-0.603-0.389-1.244-0.729-1.796-1.182c-1.482-1.208-2.143-2.842-2.204-4.731
	c-0.028-0.776-0.086-1.574,0.058-2.32c0.172-0.892,0.432-1.81,0.859-2.604c1.019-1.91,2.259-3.701,3.224-5.641
	c1.175-2.37,1.487-4.884,0.805-7.531c-0.805-3.117-1.845-6.134-3.186-9.052c-0.241-0.52-0.223-0.961,0.067-1.461
	c2.438-4.199,3.825-8.817,5.127-13.451c1.069-3.796,1.646-7.686,1.798-11.646c0.124-3.183,1.237-6.177,1.921-9.256
	c0.016-0.071,0.153-0.12,0.502-0.369c0.119,0.768,0.249,1.362,0.292,1.964c0.215,2.893,0.473,5.787,0.581,8.684
	c0.055,1.512,0.268,2.98,0.659,4.42c0.211,0.769,0.544,1.552,1.008,2.189c0.356,0.489,0.595,0.917,0.606,1.52
	c0.146,7.489,1.279,14.856,2.537,22.217c1.074,6.283,2.016,12.584,3.089,18.868c0.686,4.024,0.646,8.056,0.272,12.091
	c-0.405,4.386-0.83,8.769-1.375,13.139c-0.438,3.545-1.178,7.055-1.587,10.604c-0.269,2.343-0.522,4.688-0.769,7.034h49.883
	c3.311-21.035,2.197-23.476,2.216-25.216c0.036-3.263-0.119-6.529-0.286-9.792c-0.146-2.884,0.314-5.685,0.862-8.484
	c1.168-6.003,2.372-12.01,2.792-18.12c0.385-5.584,0.489-11.188,0.735-16.785c0.182-4.145,0.406-8.285,0.577-12.43
	c0.036-0.837,0.326-1.225,1.149-1.547c2.342-0.918,4.607-2.02,6.913-3.024c1.31-0.569,2.64-1.091,4.011-1.653
	c0.061-1.457-0.667-2.646-0.973-3.933c-0.481-2.063-1.033-4.108-1.5-6.171c-0.548-2.423-0.906-4.891-1.592-7.27
	c-0.642-2.217-0.95-4.453-1.088-6.729c-0.099-1.649-0.113-3.311-0.116-4.964c-0.018-4.216-0.639-8.349-1.443-12.475
	c-0.551-2.843-0.866-5.735-1.377-8.593c-0.486-2.701-1.062-5.384-1.646-8.066c-0.699-3.237-1.436-6.468-2.183-9.695
	c-0.3-1.309-0.714-2.592-1.008-3.904c-0.471-2.114-0.855-4.249-1.337-6.358c-0.494-2.161-1.036-4.312-1.597-6.458
	c-1.512-5.808-3.001-11.62-4.569-17.409c-1.317-4.844-2.681-9.678-4.128-14.484c-0.627-2.073-1.519-4.068-2.291-6.094
	c-0.334-0.87-0.656-1.741-1.009-2.601c-1.047-2.552-2.636-4.654-5.014-6.091c-0.217-0.133-0.463-0.236-0.656-0.398
	c-1.363-1.164-2.683-2.386-4.089-3.494c-1.008-0.791-2.105-1.47-3.206-2.133c-2.059-1.24-4.128-2.465-6.224-3.637
	c-2.415-1.353-4.844-2.672-7.298-3.948c-3.223-1.674-6.465-3.317-9.717-4.934c-2.244-1.117-4.488-2.241-6.787-3.228
	c-2.537-1.091-5.141-2.026-7.715-3.031c-3.344-1.309-6.704-2.569-10.021-3.944c-1.32-0.543-2.546-1.329-3.812-2.012
	c-0.178-0.095-0.327-0.294-0.511-0.334c-1.881-0.372-2.447-1.987-3.281-3.407c-1.309-2.223-2.733-4.377-4.181-6.675
	c1.509-3.209,0.827-6.711,0.398-10.108c-0.221-1.772-1.325-3.451-2.139-5.115c-0.184-0.373-0.819-0.735-1.251-0.735
	c-2.32-0.011-3.908-1.628-5.793-2.585c-0.686-0.345-1.28-0.879-1.973-1.192c-0.703-0.316-1.479-0.465-2.346-0.465
	c-0.221-0.279-0.446-0.556-0.656-0.842c-0.619-0.851-1.389-1.45-2.374-1.885c-4.46-1.969-8.857-4.083-13.521-5.536
	c-0.67-0.21-0.928-0.703-1.235-1.269c-2.078-3.8-3.376-7.904-4.481-12.059c-0.932-3.495-1.711-7.044-2.35-10.608
	c-0.478-2.709-0.515-5.479,0.179-8.19c0.38-1.497,0.825-2.977,1.213-4.474c0.203-0.798,0.414-1.606,0.482-2.426
	c0.062-0.765,0.389-1.174,1.041-1.544c2.211-1.24,3.717-3.256,5.188-5.239c2.43-3.277,4.076-6.917,4.735-11.019
	c0.504-3.113,2.128-6.137,1.875-9.288c-0.715-8.817-5.559-10.376-5.559-10.376c-0.408-0.428-0.572-1.193-0.649-1.827
	c-0.09-0.759-0.014-4.796,0.077-5.566c0.369-3.15,0.26-6.285-0.055-9.436c-0.159-1.589-0.01-3.206-0.01-4.809
	c-0.005-0.554-0.023-1.109-0.081-1.656c-0.024-0.25-0.262-0.497-0.239-0.725c0.199-2.02-0.878-3.677-1.483-5.465
	c-0.162-0.481-0.431-0.935-0.695-1.373c-0.863-1.411-1.807-2.771-2.589-4.221c-0.38-0.7-0.449-1.563-0.711-2.339
	c-0.145-0.431-0.3-0.92-0.605-1.229c-1.425-1.435-2.102-3.273-2.849-5.086c-0.153-0.373-0.398-0.722-0.653-1.036
	c-0.316-0.388-0.584-0.7-0.646-1.306c-0.054-0.573-0.562-1.247-1.059-1.61c-2.189-1.587-4.093-3.476-5.622-5.685
	c-1.436-2.07-3.595-3.343-5.176-5.217c-1.938-2.306-4.359-3.974-6.869-5.551c-1.359-0.852-2.796-1.462-4.376-1.719
	c-1.961-0.319-3.922-0.638-5.885-0.964c-0.246-0.041-0.601-0.036-0.714-0.195c-1.072-1.491-3.273,0.184-3.915-1.773
	c-0.072-0.222-0.297-0.501-0.497-0.544c-1.326-0.294-2.603,0.392-4.006,0.521c-0.348,0.033-0.729,0.123-1.016,0.309
	c-1.015,0.652-2.059-2.027-2.966-1.156c-0.786,0.754-2.012,1.167-3.143,0.731c-0.603-0.229-1.128-0.213-1.599-0.003
	c-2.364,1.055-4.877,1.49-7.403,1.816c-2.454,0.314-4.789,0.936-6.925,2.222c-0.57,0.342-1.081,0.581-1.614-0.059
	c-0.109-0.13-0.359-0.202-0.544-0.194c-2.009,0.051-3.952,0.306-5.529,1.775c-0.522,0.49-1.16,0.846-1.733,1.277
	c-1.841,1.377-3.589,2.907-5.536,4.102c-1.831,1.111-3.346,2.493-4.782,4.055c-1,1.092-2.306,1.907-3.277,3.024
	c-1.962,2.252-3.796,4.616-5.667,6.946c-0.903,1.125-1.849,2.227-2.636,3.431c-1.038,1.581-2.027,3.208-2.883,4.894
	c-0.881,1.741-1.584,3.576-2.356,5.373c-0.142,0.331-0.395,0.719-0.326,1.012c0.489,2.034-0.605,3.701-1.139,5.504
	c-0.406,1.378-0.732,2.781-1.102,4.169c-0.21,0.794-0.512,1.57-0.646,2.378c-0.631,3.768-1.309,7.531-1.78,11.319
	c-0.214,1.729-0.218,3.557,0.095,5.261c0.315,1.736,1.124,3.379,1.74,5.055c0.105,0.282,0.461,0.519,0.465,0.775
	c0.011,1.547,0.54,2.894,1.297,4.22c0.707,1.237,1.237,2.582,1.856,3.873c0.533,1.108,1.131,2.192,1.599,3.328
	c0.21,0.5,0.265,1.109,0.232,1.656c-0.16,2.69-0.363,5.377-0.573,8.062c-0.04,0.497-0.17,0.987-0.3,1.689
	c-0.421-0.376-0.66-0.611-0.921-0.821c-1.306-1.045-2.654-0.693-3.329,0.818c-0.565,1.276-1.174,2.531-1.777,3.789
	c-0.271,0.568-0.707,0.855-1.363,0.768c-2.872-0.372-5.71,0.023-8.566,0.292c-2.19,0.205-4.402,0.202-6.603,0.223
	c-2.396,0.03-3.568,0.911-4.245,3.21c-1.237,4.165-2.501,8.323-3.774,12.479c-0.787,2.571-1.512,5.167-2.455,7.679
	c-0.652,1.733-1.588,3.36-2.461,5.003c-1.222,2.303-1.327,4.623-0.322,7.027c1.257,3.009,2.458,6.04,3.171,9.237
	c1.084,4.845,2.701,9.568,3.22,14.539c0.229,2.215,0.475,4.437,0.551,6.659c0.054,1.541,0,3.129-0.827,4.525
	c-0.359,0.608-0.732,1.229-1.204,1.747c-1.251,1.366-2.556,2.679-3.836,4.013c-0.174,0.186-0.431,0.371-0.471,0.588
	c-0.355,2.049-1.57,3.716-2.349,5.576c-0.279,0.66-0.432,1.378-0.707,2.042c-0.432,1.032-0.903,2.051-1.393,3.058
	c-0.402,0.829-0.837,1.64-1.294,2.434c-1.258,2.18-2.542,4.322-4.252,6.208c-1.056,1.159-1.705,2.686-2.676,3.937
	c-1.581,2.02-3.313,3.916-4.917,5.92c-1.754,2.205-3.4,4.5-5.159,6.705c-2.153,2.701-4.409,5.318-6.566,8.02
	c-4.028,5.035-8.027,10.097-12.015,15.165c-2.687,3.411-5.605,6.602-8.614,9.718c-1.824,1.892-3.509,3.918-5.337,5.803
	c-3.448,3.551-6.943,7.053-10.431,10.559c-5.395,5.423-9.455,11.717-11.986,18.972c-1.562,4.471-2.578,9.082-2.367,13.864
	c0.163,3.764,1.124,7.327,2.712,10.775c1.827,3.959,2.222,2.697,0.642,7.091c-1.251,3.491-0.99,7.066,0.323,10.515
	c0.79,2.073,1.635,4.147,2.665,6.105c2.012,3.82,5.141,6.435,9.173,7.85c3.19,1.124,6.424,2.117,9.665,3.08
	c2.502,0.744,5.022,1.451,7.567,2.01c4.311,0.949,8.56,0.481,12.726-0.896c8.15-2.693,15.213-7.145,21.137-13.421
	c0.881-0.933,1.635-1.994,2.494-2.955c0.323-0.358,0.787-0.848,1.182-0.848c2.067,0.01,3.633-1.175,5.09-2.311
	c2.549-1.979,5.083-4.053,7.24-6.441c1.628-1.8,2.719-4.119,3.934-6.272c0.786-1.403,1.5-2.8,2.896-3.724
	c0.482-0.319,0.939-0.893,1.103-1.439c0.428-1.442,1.465-2.013,2.767-2.313c0.438-0.101,0.881-0.173,1.337-0.264
	c0.544,0.861,0.377,1.686,0.17,2.469c-1.461,5.564-1.874,11.336-3.194,16.917c-0.877,3.712-0.271,7.425-0.623,11.123
	c0.645,2.5-0.46,4.773-0.889,7.142c-0.507,2.802,1.03,5.626,0.649,8.451c-0.507,3.748-0.95,7.508-1.436,11.258
	c-0.323,2.52-0.692,5.031-1.001,7.548c-0.069,0.558-0.094,1.179,0.069,1.7c0.308,0.967,0,1.835-0.2,2.736
	c-0.374,1.719-0.837,3.424-1.076,5.156c-0.761,5.489,3.042,10.99,2.353,16.489c-0.772,6.175-1.493,12.353-2.273,18.522
	c-0.71,5.602,3.651,11.195,2.926,16.798c-0.598,4.614-1.207,9.223-1.794,13.838h184.58
	C272.924,444.229,272.913,444.15,272.899,444.07"/>
</svg>
