<?xml version="1.0" encoding="utf-8"?>
<!-- Generator: Adobe Illustrator 15.0.0, SVG Export Plug-In  -->
<!DOCTYPE svg PUBLIC "-//W3C//DTD SVG 1.1//EN" "http://www.w3.org/Graphics/SVG/1.1/DTD/svg11.dtd" [
	<!ENTITY ns_flows "http://ns.adobe.com/Flows/1.0/">
]>
<svg version="1.1"
	 xmlns="http://www.w3.org/2000/svg" xmlns:xlink="http://www.w3.org/1999/xlink" xmlns:a="http://ns.adobe.com/AdobeSVGViewerExtensions/3.0/"
	 x="0px" y="0px" width="454px" height="400px" viewBox="-127.165 -44.432 454 400"
	 overflow="visible" enable-background="new -127.165 -44.432 454 400" xml:space="preserve">
<defs>
</defs>
<path fill="#00548E" d="M113.056,128.791c-0.131-0.212-0.287-0.432-0.408-0.673c-0.549-1.076-0.801-1.22-1.946-0.803
	c-0.726,0.265-1.425,0.63-2.083,1.039c-0.656,0.405-1.238,0.893-1.943,1.259c-0.595,0.31-1.088,1.032-1.375,1.687
	c-0.51,1.164-0.832,2.414-1.232,3.626c-0.234,0.702-0.397,1.444-0.73,2.094c-0.189,0.368-0.64,0.617-1.004,0.87
	c-3.177,2.204-6.001,4.788-8.086,8.081c-1.679,2.651-3.055,5.482-3.977,8.514c-0.403,1.316-0.72,1.461-2.312,0.905
	c0.113-0.406,0.188-0.839,0.351-1.233c0.914-2.21,1.86-4.409,2.77-6.62c0.725-1.757,1.369-3.55,2.148-5.281
	c0.277-0.611,0.751-1.241,1.306-1.593c2.288-1.458,3.7-3.552,4.728-6.023c1.082-2.599,1.687-5.264,1.546-8.087
	c-0.035-0.727,0.348-1.254,0.773-1.766c0.769-0.917,1.5-1.867,2.318-2.737c1.15-1.224,1.396-2.748,1.656-4.317
	c0.402-2.442,0.92-4.863,1.387-7.292c0.106,0,0.211,0,0.317,0c0.241,0.326,0.522,0.627,0.714,0.978
	c1.434,2.597,3.535,4.601,5.623,6.629c1.965,1.91,3.879,3.876,5.799,5.832c0.281,0.286,0.481,0.656,0.775,1.058
	C117.798,126.223,115.467,127.485,113.056,128.791 M85.339,107.954c-0.217-0.618-0.574-1.186-0.917-1.876
	c1.097-1.354,1.496-2.878,1.433-4.536c0.565-0.053,1.152,0.014,1.633-0.184c0.5-0.207,0.893-0.67,1.438-1.105
	c0.438,1.334,1.373,2.083,2.55,2.559c0.537,0.217,0.484,0.705,0.574,1.143c0.482,2.312,0.885,4.644,1.479,6.924
	c0.362,1.387,0.975,2.719,1.573,4.03c0.284,0.621,0.292,1.077-0.172,1.563c-0.479,0.508-0.937,1.036-1.378,1.528
	c-1.836-0.11-3.383-0.852-4.936-1.609c-0.606-0.295-0.717-0.835-0.9-1.392C86.946,112.645,86.16,110.292,85.339,107.954
	 M218.326,355.255c-0.302-1.621-0.782-3.213-1.027-4.843c-0.473-3.143-1.175-6.276-0.884-9.487c0.125-1.383,0.699-2.622,1.502-3.75
	c1.784-2.504,0.961-6.863-1.6-8.517c-0.482-0.312-0.995-0.583-1.437-0.945c-1.187-0.967-1.715-2.273-1.763-3.785
	c-0.023-0.62-0.069-1.259,0.045-1.855c0.139-0.714,0.347-1.448,0.688-2.084c0.816-1.528,1.808-2.961,2.58-4.513
	c0.939-1.896,1.189-3.906,0.645-6.024c-0.645-2.494-1.477-4.907-2.55-7.241c-0.192-0.417-0.179-0.77,0.054-1.169
	c1.95-3.359,3.061-7.054,4.102-10.761c0.855-3.037,1.316-6.148,1.438-9.317c0.099-2.546,0.989-4.941,1.536-7.405
	c0.014-0.056,0.123-0.096,0.402-0.295c0.096,0.615,0.199,1.09,0.233,1.572c0.172,2.313,0.379,4.629,0.465,6.946
	c0.044,1.21,0.215,2.385,0.527,3.536c0.169,0.615,0.435,1.241,0.806,1.752c0.285,0.391,0.477,0.733,0.486,1.215
	c0.115,5.992,1.021,11.886,2.029,17.773c0.858,5.027,1.612,10.067,2.471,15.095c0.549,3.22,0.517,6.444,0.217,9.673
	c-0.322,3.51-0.664,7.016-1.1,10.512c-0.35,2.836-0.941,5.644-1.27,8.482c-0.215,1.875-0.417,3.751-0.615,5.628h39.906
	c2.648-16.828,1.758-18.78,1.773-20.173c0.029-2.61-0.096-5.224-0.229-7.834c-0.117-2.307,0.251-4.548,0.689-6.787
	c0.934-4.803,1.897-9.607,2.233-14.496c0.308-4.467,0.392-8.95,0.587-13.428c0.146-3.316,0.326-6.628,0.463-9.944
	c0.028-0.669,0.26-0.979,0.919-1.237c1.874-0.734,3.685-1.615,5.53-2.42c1.048-0.454,2.111-0.872,3.209-1.321
	c0.049-1.166-0.533-2.117-0.778-3.147c-0.386-1.649-0.827-3.285-1.2-4.937c-0.438-1.938-0.725-3.912-1.273-5.815
	c-0.514-1.773-0.76-3.562-0.871-5.384c-0.078-1.318-0.09-2.648-0.092-3.971c-0.016-3.373-0.512-6.679-1.154-9.979
	c-0.441-2.275-0.693-4.589-1.102-6.875c-0.39-2.16-0.851-4.308-1.318-6.453c-0.559-2.59-1.148-5.174-1.746-7.756
	c-0.239-1.047-0.57-2.073-0.806-3.124c-0.378-1.69-0.685-3.399-1.069-5.086c-0.396-1.729-0.829-3.45-1.278-5.167
	c-1.21-4.646-2.401-9.296-3.655-13.927c-1.053-3.875-2.145-7.742-3.302-11.587c-0.501-1.658-1.216-3.254-1.833-4.875
	c-0.268-0.696-0.525-1.393-0.808-2.081c-0.837-2.042-2.108-3.723-4.011-4.874c-0.174-0.106-0.371-0.188-0.525-0.318
	c-1.09-0.931-2.146-1.909-3.271-2.795c-0.806-0.633-1.684-1.176-2.564-1.706c-1.646-0.992-3.303-1.972-4.979-2.909
	c-1.932-1.083-3.875-2.139-5.838-3.159c-2.58-1.339-5.172-2.654-7.773-3.948c-1.796-0.893-3.592-1.792-5.43-2.582
	c-2.03-0.873-4.113-1.621-6.172-2.425c-2.676-1.047-5.363-2.055-8.018-3.155c-1.057-0.435-2.037-1.063-3.049-1.61
	c-0.144-0.076-0.262-0.235-0.41-0.267c-1.504-0.298-1.957-1.589-2.624-2.725c-1.048-1.779-2.187-3.502-3.345-5.34
	c1.207-2.567,0.661-5.369,0.318-8.086c-0.178-1.418-1.061-2.761-1.712-4.092c-0.147-0.298-0.655-0.588-1.001-0.588
	c-1.855-0.009-3.125-1.302-4.635-2.068c-0.548-0.276-1.023-0.703-1.578-0.953c-0.562-0.253-1.184-0.373-1.876-0.373
	c-0.177-0.223-0.356-0.445-0.524-0.674c-0.496-0.68-1.111-1.16-1.9-1.508c-3.567-1.575-7.086-3.266-10.816-4.429
	c-0.536-0.168-0.742-0.562-0.988-1.015c-1.662-3.04-2.7-6.324-3.584-9.648c-0.746-2.796-1.369-5.635-1.881-8.486
	c-0.383-2.167-0.411-4.384,0.144-6.552c0.304-1.198,0.66-2.381,0.97-3.579c0.163-0.638,0.332-1.285,0.387-1.94
	c0.049-0.613,0.311-0.94,0.832-1.235c1.77-0.992,2.975-2.605,4.15-4.191c1.945-2.622,3.262-5.534,3.789-8.815
	c0.402-2.49,1.701-4.91,1.5-7.431c-0.572-7.053-4.447-8.301-4.447-8.301c-0.326-0.342-0.458-0.954-0.52-1.461
	c-0.072-0.608-0.012-3.837,0.062-4.453c0.296-2.52,0.208-5.028-0.044-7.549c-0.127-1.271-0.008-2.564-0.008-3.847
	c-0.004-0.443-0.019-0.888-0.065-1.325c-0.019-0.2-0.21-0.397-0.19-0.58c0.158-1.616-0.703-2.941-1.188-4.372
	c-0.129-0.385-0.344-0.749-0.556-1.099c-0.69-1.129-1.445-2.217-2.071-3.376c-0.304-0.56-0.359-1.251-0.568-1.872
	c-0.115-0.344-0.24-0.736-0.484-0.983c-1.141-1.148-1.682-2.619-2.279-4.068c-0.121-0.299-0.318-0.578-0.521-0.829
	c-0.254-0.31-0.467-0.56-0.518-1.044c-0.043-0.458-0.449-0.998-0.847-1.289c-1.751-1.27-3.274-2.78-4.497-4.547
	c-1.15-1.656-2.877-2.675-4.141-4.174c-1.551-1.845-3.488-3.179-5.496-4.44c-1.088-0.682-2.236-1.17-3.5-1.375
	c-1.569-0.256-3.139-0.51-4.709-0.771c-0.197-0.033-0.48-0.029-0.571-0.156c-0.856-1.193-2.618,0.147-3.132-1.418
	c-0.057-0.177-0.238-0.401-0.398-0.435c-1.06-0.235-2.082,0.314-3.204,0.417c-0.278,0.026-0.583,0.099-0.812,0.247
	c-0.812,0.521-1.647-1.621-2.372-0.924c-0.629,0.603-1.611,0.934-2.516,0.584c-0.482-0.183-0.902-0.17-1.279-0.002
	c-1.891,0.844-3.9,1.192-5.922,1.453c-1.963,0.25-3.832,0.749-5.54,1.777c-0.456,0.273-0.864,0.465-1.292-0.047
	c-0.086-0.105-0.286-0.162-0.435-0.156c-1.606,0.041-3.161,0.245-4.423,1.42c-0.418,0.392-0.928,0.677-1.387,1.021
	c-1.473,1.102-2.871,2.326-4.429,3.282c-1.465,0.888-2.677,1.994-3.825,3.244c-0.801,0.874-1.846,1.526-2.621,2.419
	c-1.57,1.802-3.038,3.693-4.534,5.557c-0.723,0.9-1.48,1.782-2.109,2.745c-0.831,1.264-1.621,2.566-2.306,3.915
	c-0.705,1.393-1.268,2.861-1.885,4.298c-0.114,0.265-0.316,0.575-0.261,0.809c0.392,1.627-0.484,2.961-0.912,4.403
	c-0.324,1.103-0.585,2.225-0.881,3.335c-0.168,0.635-0.409,1.256-0.517,1.902c-0.505,3.015-1.047,6.025-1.423,9.056
	c-0.171,1.384-0.174,2.845,0.076,4.208c0.252,1.389,0.899,2.703,1.392,4.044c0.083,0.225,0.369,0.415,0.372,0.62
	c0.008,1.238,0.432,2.316,1.037,3.376c0.566,0.989,0.99,2.066,1.485,3.099c0.426,0.886,0.905,1.753,1.279,2.662
	c0.168,0.4,0.212,0.888,0.186,1.325c-0.128,2.152-0.291,4.301-0.458,6.45c-0.032,0.398-0.136,0.789-0.24,1.351
	c-0.337-0.301-0.528-0.488-0.737-0.657c-1.045-0.836-2.124-0.554-2.664,0.655c-0.452,1.021-0.939,2.025-1.422,3.031
	c-0.217,0.455-0.565,0.685-1.09,0.614c-2.298-0.297-4.568,0.019-6.853,0.233c-1.752,0.164-3.522,0.162-5.283,0.179
	c-1.917,0.024-2.854,0.729-3.396,2.568c-0.989,3.332-2.001,6.658-3.019,9.982c-0.629,2.057-1.21,4.134-1.964,6.144
	c-0.522,1.386-1.271,2.688-1.969,4.002c-0.978,1.842-1.062,3.698-0.258,5.621c1.005,2.408,1.966,4.832,2.537,7.39
	c0.867,3.876,2.161,7.655,2.576,11.631c0.184,1.772,0.381,3.549,0.441,5.327c0.043,1.233,0,2.503-0.662,3.62
	c-0.288,0.487-0.586,0.983-0.963,1.397c-1,1.093-2.044,2.144-3.068,3.211c-0.139,0.148-0.346,0.297-0.377,0.471
	c-0.284,1.639-1.256,2.973-1.879,4.461c-0.224,0.527-0.345,1.102-0.566,1.633c-0.345,0.825-0.722,1.641-1.114,2.446
	c-0.322,0.663-0.669,1.312-1.035,1.947c-1.006,1.745-2.034,3.458-3.402,4.966c-0.845,0.927-1.364,2.149-2.141,3.15
	c-1.265,1.616-2.65,3.133-3.934,4.736c-1.403,1.764-2.72,3.6-4.126,5.364c-1.723,2.161-3.527,4.255-5.253,6.416
	c-3.223,4.028-6.422,8.078-9.612,12.132c-2.15,2.729-4.484,5.282-6.891,7.775c-1.459,1.513-2.807,3.134-4.27,4.642
	c-2.759,2.841-5.555,5.642-8.345,8.447c-4.316,4.338-7.564,9.374-9.589,15.178c-1.25,3.577-2.062,7.266-1.894,11.09
	c0.131,3.012,0.899,5.862,2.17,8.621c1.461,3.167,1.777,2.157,0.514,5.672c-1,2.793-0.792,5.653,0.258,8.413
	c0.632,1.657,1.309,3.317,2.132,4.884c1.61,3.056,4.113,5.148,7.338,6.28c2.552,0.899,5.14,1.692,7.732,2.464
	c2.001,0.595,4.018,1.16,6.054,1.607c3.449,0.76,6.848,0.385,10.181-0.717c6.52-2.154,12.17-5.716,16.91-10.736
	c0.705-0.746,1.308-1.596,1.995-2.364c0.258-0.286,0.629-0.679,0.945-0.679c1.654,0.008,2.906-0.939,4.072-1.848
	c2.039-1.584,4.066-3.243,5.792-5.153c1.302-1.44,2.175-3.296,3.147-5.019c0.629-1.121,1.2-2.239,2.317-2.979
	c0.385-0.256,0.751-0.714,0.882-1.151c0.342-1.153,1.172-1.61,2.214-1.851c0.35-0.081,0.705-0.138,1.069-0.211
	c0.436,0.688,0.302,1.349,0.136,1.976c-1.169,4.45-1.5,9.068-2.556,13.533c-0.702,2.97-0.216,5.94-0.499,8.898
	c0.517,2-0.368,3.818-0.711,5.714c-0.405,2.241,0.824,4.5,0.519,6.761c-0.406,2.998-0.759,6.006-1.148,9.006
	c-0.259,2.017-0.554,4.025-0.801,6.038c-0.056,0.447-0.075,0.944,0.055,1.36c0.246,0.773,0,1.468-0.16,2.189
	c-0.299,1.375-0.669,2.739-0.861,4.125c-0.608,4.391,2.434,8.791,1.882,13.19c-0.617,4.94-1.194,9.883-1.818,14.818
	c-0.568,4.48,2.92,8.956,2.341,13.438c-0.478,3.691-0.966,7.379-1.435,11.07h147.664
	C218.347,355.382,218.338,355.32,218.326,355.255"/>
</svg>
