<?xml version="1.0" encoding="utf-8"?>
<!-- Generator: Adobe Illustrator 19.0.0, SVG Export Plug-In . SVG Version: 6.00 Build 0)  -->
<svg version="1.1" id="Ebene_1" xmlns="http://www.w3.org/2000/svg" xmlns:xlink="http://www.w3.org/1999/xlink" x="0px" y="0px"
	 viewBox="-273 365 64 64" style="enable-background:new -273 365 64 64;" xml:space="preserve">
<style type="text/css">
	.st0{fill:#004B88;}
</style>
<g>
	<path class="st0" d="M-241,365c-8.5,0-16.6,3.3-22.6,9.4c-6,6-9.4,14.1-9.4,22.6s3.3,16.6,9.4,22.6c6,6,14.1,9.4,22.6,9.4
		s16.6-3.3,22.6-9.4c6-6,9.4-14.1,9.4-22.6s-3.3-16.6-9.4-22.6C-224.4,368.3-232.5,365-241,365z M-221.2,416.8
		c-5.3,5.3-12.3,8.2-19.8,8.2s-14.5-2.9-19.8-8.2c-5.3-5.3-8.2-12.3-8.2-19.8s2.9-14.5,8.2-19.8c5.3-5.3,12.3-8.2,19.8-8.2
		s14.5,2.9,19.8,8.2c5.3,5.3,8.2,12.3,8.2,19.8S-215.9,411.5-221.2,416.8z"/>
	<path class="st0" d="M-226.2,401.2l-12.8-5.5V375c0-1.1-0.9-2-2-2s-2,0.9-2,2v22c0,0.8,0.5,1.5,1.2,1.8l14,6
		c0.3,0.1,0.5,0.2,0.8,0.2c0.8,0,1.5-0.5,1.8-1.2C-224.7,402.8-225.2,401.6-226.2,401.2z"/>
	<path class="st0" d="M-261,395h-2c-1.1,0-2,0.9-2,2s0.9,2,2,2h2c1.1,0,2-0.9,2-2S-259.9,395-261,395z"/>
	<path class="st0" d="M-223,397c0,1.1,0.9,2,2,2h2c1.1,0,2-0.9,2-2s-0.9-2-2-2h-2C-222.1,395-223,395.9-223,397z"/>
	<path class="st0" d="M-241,415c-1.1,0-2,0.9-2,2v2c0,1.1,0.9,2,2,2s2-0.9,2-2v-2C-239,415.9-239.9,415-241,415z"/>
</g>
</svg>
