<?xml version="1.0" encoding="utf-8"?>
<!-- Generator: Adobe Illustrator 19.0.0, SVG Export Plug-In . SVG Version: 6.00 Build 0)  -->
<svg version="1.1" id="Ebene_1" xmlns="http://www.w3.org/2000/svg" xmlns:xlink="http://www.w3.org/1999/xlink" x="0px" y="0px"
	 viewBox="-273 365 64 64" style="enable-background:new -273 365 64 64;" xml:space="preserve">
<style type="text/css">
	.st0{fill:#004B88;}
</style>
<g>
	<path class="st0" d="M-241,403c4.1,0,8-3.9,8-8c0-1.1-0.9-2-2-2c-1.1,0-2,0.9-2,2c0,1.9-2.1,4-4,4c-1.9,0-4-2.1-4-4
		c0-1.1-0.9-2-2-2c-1.1,0-2,0.9-2,2C-249,399.1-245.1,403-241,403z"/>
	<path class="st0" d="M-251,387c0.5,0,1-0.2,1.4-0.6c0.4-0.4,0.6-0.9,0.6-1.4s-0.2-1-0.6-1.4c-0.8-0.8-2.1-0.8-2.8,0
		c-0.4,0.4-0.6,0.9-0.6,1.4s0.2,1,0.6,1.4C-252,386.8-251.5,387-251,387z"/>
	<path class="st0" d="M-231,387c0.5,0,1-0.2,1.4-0.6c0.4-0.4,0.6-0.9,0.6-1.4s-0.2-1-0.6-1.4c-0.7-0.8-2.1-0.8-2.8,0
		c-0.4,0.4-0.6,0.9-0.6,1.4s0.2,1,0.6,1.4C-232,386.8-231.5,387-231,387z"/>
	<path class="st0" d="M-273,412c0,1.1,0.9,2,2,2h14v10c0,0.8,0.5,1.5,1.2,1.8c0.3,0.1,0.6,0.2,0.8,0.2c0.5,0,0.9-0.2,1.3-0.5
		l13.4-11.5h29.3c1.1,0,2-0.9,2-2v-42c0-1.1-0.9-2-2-2h-60c-1.1,0-2,0.9-2,2V412z M-269,372h56v38h-28c-0.5,0-0.9,0.2-1.3,0.5
		l-10.7,9.2V412c0-1.1-0.9-2-2-2h-14V372z"/>
</g>
</svg>
