<?xml version="1.0" encoding="utf-8"?>
<!-- Generator: Adobe Illustrator 19.0.0, SVG Export Plug-In . SVG Version: 6.00 Build 0)  -->
<svg version="1.1" id="Ebene_1" xmlns="http://www.w3.org/2000/svg" xmlns:xlink="http://www.w3.org/1999/xlink" x="0px" y="0px"
	 viewBox="-273 365 64 64" style="enable-background:new -273 365 64 64;" xml:space="preserve">
<style type="text/css">
	.st0{fill:#004B88;}
</style>
<g>
	<path class="st0" d="M-211,425h-58v-8h4c1.1,0,2-0.9,2-2s-0.9-2-2-2h-4v-6c1.1,0,2-0.9,2-2s-0.9-2-2-2v-6h4c1.1,0,2-0.9,2-2
		s-0.9-2-2-2h-4v-6c1.1,0,2-0.9,2-2s-0.9-2-2-2v-6h4c1.1,0,2-0.9,2-2s-0.9-2-2-2h-4v-6c0-1.1-0.9-2-2-2s-2,0.9-2,2v58
		c0,2.2,1.8,4,4,4h58c1.1,0,2-0.9,2-2S-209.9,425-211,425z"/>
	<path class="st0" d="M-217,399c1.1,0,2-0.9,2-2v-10c0-0.1,0-0.3,0-0.4c0-0.1,0-0.1-0.1-0.2c0-0.1,0-0.1-0.1-0.2
		c0-0.1-0.1-0.1-0.1-0.2c0-0.1,0-0.1-0.1-0.1c-0.1-0.2-0.3-0.4-0.6-0.6c0,0-0.1-0.1-0.1-0.1c-0.1,0-0.1-0.1-0.2-0.1
		c-0.1,0-0.1,0-0.2-0.1c-0.1,0-0.1,0-0.2-0.1c-0.1,0-0.3,0-0.4,0h-10c-1.1,0-2,0.9-2,2s0.9,2,2,2h5.2l-19.2,19.2l-4.6-4.6
		c-0.8-0.8-2-0.8-2.8,0l-10,10c-0.8,0.8-0.8,2,0,2.8c0.4,0.4,0.9,0.6,1.4,0.6s1-0.2,1.4-0.6l8.6-8.6l4.6,4.6c0.8,0.8,2,0.8,2.8,0
		l20.6-20.6v5.2C-219,398.1-218.1,399-217,399z"/>
</g>
</svg>
