<?xml version="1.0" encoding="utf-8"?>
<!-- Generator: Adobe Illustrator 20.1.0, SVG Export Plug-In . SVG Version: 6.00 Build 0)  -->
<svg version="1.1" id="Layer_1" xmlns="http://www.w3.org/2000/svg" xmlns:xlink="http://www.w3.org/1999/xlink" x="0px" y="0px"
	 width="2313.4px" height="396.8px" viewBox="0 0 2313.4 396.8" style="enable-background:new 0 0 2313.4 396.8;"
	 xml:space="preserve">
<style type="text/css">
	.st0{fill:#DFDFDF;}
	.st1{fill:#FCBB69;}
</style>
<g id="icomoon-ignore_1_">
</g>
<g id="icomoon-ignore">
</g>
<g>
	<path class="st0" d="M2313.4,153.7c0-6.2-4.6-10-14.1-11.5L2173.8,124l-56.2-113.8c-3.1-6.8-7.2-10.2-12.1-10.2
		c-5,0-9.1,3.4-12.1,10.2L2037.1,124l-125.5,18.2c-9.5,1.5-14.1,5.3-14.1,11.5c0,3.7,2.2,7.7,6.5,12l90.8,88.5l-21.5,125
		c-0.2,1.2-0.2,2.8-0.2,5c0,3.5,0.9,6.5,2.6,8.9c1.7,2.4,4.3,3.6,7.6,3.6c3.2,0,6.5-1,10-3l112.1-59l112.1,59c3.5,2,6.8,3,10,3
		c3.3,0,5.9-1.2,7.6-3.6c1.7-2.4,2.6-5.4,2.6-8.9c0-2.2,0-3.8-0.2-5l-21.5-125l90.8-88.5C2311.2,161.4,2313.4,157.4,2313.4,153.7z"
		/>
	<path class="st1" d="M401.8,142.2L276.3,124L220.1,10.2C217,3.5,212.9,0.1,208,0.1c-5,0-9.1,3.4-12.1,10.2L139.6,124L14.1,142.2
		C4.6,143.7,0,147.5,0,153.7c0,3.7,2.2,7.7,6.5,12l90.8,88.5l-21.5,125c-0.2,1.2-0.2,2.8-0.2,5c0,3.5,0.9,6.5,2.6,8.9
		c1.7,2.4,4.3,3.6,7.6,3.6c3.2,0,6.5-1,10-3l112.1-59l112.1,59c3.5,2,6.8,3,10,3c3.3,0,5.9-1.2,7.6-3.6c1.7-2.4,2.6-5.4,2.6-8.9
		c0-2.2,0-3.8-0.2-5l-21.5-125l90.8-88.5c4.3-4.3,6.5-8.3,6.5-12C415.9,147.5,411.3,143.7,401.8,142.2z"/>
	<path class="st1" d="M876.2,142.2L750.7,124L694.5,10.2c-3.1-6.8-7.2-10.2-12.1-10.2c-5,0-9.1,3.4-12.1,10.2L614,124l-125.5,18.2
		c-9.5,1.5-14.1,5.3-14.1,11.5c0,3.7,2.2,7.7,6.5,12l90.8,88.5l-21.5,125c-0.2,1.2-0.2,2.8-0.2,5c0,3.5,0.9,6.5,2.6,8.9
		c1.7,2.4,4.3,3.6,7.6,3.6c3.2,0,6.5-1,10-3l112.1-59l112.1,59c3.5,2,6.8,3,10,3c3.3,0,5.9-1.2,7.6-3.6c1.7-2.4,2.6-5.4,2.6-8.9
		c0-2.2,0-3.8-0.2-5l-21.5-125l90.8-88.5c4.3-4.3,6.5-8.3,6.5-12C890.3,147.5,885.7,143.7,876.2,142.2z"/>
	<path class="st1" d="M1350.5,142.2L1225,124l-56.2-113.8c-3.1-6.8-7.2-10.2-12.1-10.2c-5,0-9.1,3.4-12.1,10.2L1088.4,124
		l-125.5,18.2c-9.5,1.5-14.1,5.3-14.1,11.5c0,3.7,2.2,7.7,6.5,12l90.8,88.5l-21.5,125c-0.2,1.2-0.2,2.8-0.2,5c0,3.5,0.9,6.5,2.6,8.9
		c1.7,2.4,4.3,3.6,7.6,3.6c3.2,0,6.5-1,10-3l112.1-59l112.1,59c3.5,2,6.8,3,10,3c3.3,0,5.9-1.2,7.6-3.6c1.7-2.4,2.6-5.4,2.6-8.9
		c0-2.2,0-3.8-0.2-5l-21.5-125l90.8-88.5c4.3-4.3,6.5-8.3,6.5-12C1364.7,147.5,1360.1,143.7,1350.5,142.2z"/>
	<path class="st1" d="M1824.9,142.2L1699.4,124l-56.2-113.8c-3.1-6.8-7.2-10.2-12.1-10.2c-5,0-9.1,3.4-12.1,10.2L1562.7,124
		l-125.5,18.2c-9.5,1.5-14.1,5.3-14.1,11.5c0,3.7,2.2,7.7,6.5,12l90.8,88.5l-21.5,125c-0.2,1.2-0.2,2.8-0.2,5c0,3.5,0.9,6.5,2.6,8.9
		c1.7,2.4,4.3,3.6,7.6,3.6c3.2,0,6.5-1,10-3l112.1-59l112.1,59c3.5,2,6.8,3,10,3c3.3,0,5.9-1.2,7.6-3.6c1.7-2.4,2.6-5.4,2.6-8.9
		c0-2.2,0-3.8-0.2-5l-21.5-125l90.8-88.5c4.3-4.3,6.5-8.3,6.5-12C1839,147.5,1834.4,143.7,1824.9,142.2z"/>
</g>
</svg>
