<?xml version="1.0" encoding="utf-8"?>
<!-- Generator: Adobe Illustrator 15.0.0, SVG Export Plug-In  -->
<!DOCTYPE svg PUBLIC "-//W3C//DTD SVG 1.1//EN" "http://www.w3.org/Graphics/SVG/1.1/DTD/svg11.dtd" [
	<!ENTITY ns_flows "http://ns.adobe.com/Flows/1.0/">
]>
<svg version="1.1"
	 xmlns="http://www.w3.org/2000/svg" xmlns:xlink="http://www.w3.org/1999/xlink" xmlns:a="http://ns.adobe.com/AdobeSVGViewerExtensions/3.0/"
	 x="0px" y="0px" width="350px" height="60px" viewBox="-1.986 -1.135 350 60"
	 overflow="visible" enable-background="new -1.986 -1.135 350 60" xml:space="preserve">
<defs>
</defs>
<path fill="#004B88" d="M50.781,25.7c0,15.749-13.297,28.813-26.935,28.813c-0.022,0,1.567-4.183,1.544-4.183
	C11.368,50.333,0,39.896,0,25.7C0,11.507,11.368,0,25.39,0C39.414,0,50.781,11.507,50.781,25.7"/>
<path fill="#004B88" d="M241.102,37.92V22.855c0-2.696-0.805-4.705-2.416-6.026c-1.608-1.321-3.924-1.981-6.943-1.981
	c-3.154,0-6.023,0.682-8.614,2.043l2.031,4.165c2.43-1.092,4.544-1.639,6.342-1.639c2.333,0,3.502,1.146,3.502,3.438v0.992
	l-3.901,0.121c-3.371,0.122-5.892,0.751-7.562,1.891c-1.672,1.139-2.507,2.909-2.507,5.308c0,2.292,0.62,4.057,1.859,5.298
	c1.242,1.241,2.942,1.86,5.104,1.86c1.759,0,3.185-0.253,4.278-0.759s2.154-1.412,3.188-2.721h0.162l1.187,3.074L241.102,37.92
	L241.102,37.92z M235.003,29.306c0,1.362-0.425,2.454-1.276,3.275c-0.854,0.824-1.988,1.234-3.412,1.234
	c-1.985,0-2.979-0.869-2.979-2.609c0-1.212,0.437-2.115,1.308-2.708c0.875-0.594,2.203-0.918,3.985-0.972l2.375-0.081V29.306
	L235.003,29.306z M259.281,34.989h0.263l1.188,2.931h4.713V6.455h-6.162v7.24c0,1.321,0.154,2.824,0.465,4.511h-0.202
	c-1.487-2.211-3.649-3.317-6.479-3.317c-2.697,0-4.813,1.034-6.353,3.103c-1.534,2.07-2.305,4.958-2.305,8.666
	c0,3.653,0.754,6.512,2.264,8.574c1.511,2.062,3.587,3.094,6.229,3.094C255.76,38.325,257.889,37.212,259.281,34.989
	 M251.772,31.742c-0.764-1.11-1.146-2.779-1.146-5.005c0-2.224,0.382-3.919,1.138-5.085c0.76-1.166,1.822-1.749,3.19-1.749
	c1.678,0,2.89,0.525,3.633,1.578c0.744,1.05,1.118,2.791,1.118,5.217v0.667c-0.066,2.196-0.467,3.755-1.197,4.673
	c-0.73,0.914-1.885,1.372-3.451,1.372C253.635,33.41,252.539,32.854,251.772,31.742 M282.696,37.92l8.57-22.607h-6.42l-4.328,12.881
	c-0.535,1.794-0.838,3.336-0.903,4.63h-0.119c-0.123-1.456-0.424-2.999-0.907-4.63l-4.349-12.881h-6.421l8.572,22.607H282.696z
	 M296.746,12.501c1.114,0,1.949-0.266,2.507-0.798c0.559-0.532,0.835-1.275,0.835-2.235c0-2.008-1.112-3.013-3.342-3.013
	c-2.228,0-3.343,1.005-3.343,3.013C293.404,11.491,294.518,12.501,296.746,12.501 M299.807,15.313h-6.14v22.608h6.14V15.313z
	 M318.395,37.961c1.015-0.242,2.018-0.681,3.012-1.314v-5.278c-1.01,0.675-2.016,1.17-3.021,1.486
	c-1.008,0.318-2.1,0.476-3.281,0.476c-3.193,0-4.791-2.21-4.791-6.632c0-4.557,1.598-6.835,4.791-6.835
	c0.83,0,1.662,0.125,2.498,0.374c0.828,0.25,1.729,0.57,2.695,0.961l1.811-4.772c-2.064-1.023-4.4-1.537-7.004-1.537
	c-3.557,0-6.287,1.014-8.191,3.044c-1.905,2.028-2.857,4.963-2.857,8.805c0,7.726,3.504,11.588,10.508,11.588
	C316.104,38.325,317.385,38.204,318.395,37.961 M338.217,20.519c0.764,0.83,1.159,2.005,1.188,3.529h-8.618
	c0.106-1.524,0.53-2.7,1.271-3.529c0.735-0.829,1.758-1.243,3.062-1.243C336.417,19.276,337.451,19.691,338.217,20.519
	 M340.449,37.931c1.223-0.263,2.368-0.662,3.442-1.204v-4.772c-1.314,0.621-2.576,1.073-3.785,1.356
	c-1.209,0.283-2.488,0.424-3.846,0.424c-1.742,0-3.099-0.492-4.064-1.475c-0.965-0.985-1.481-2.354-1.551-4.106h14.517v-2.993
	c0-3.207-0.89-5.721-2.657-7.542c-1.771-1.82-4.249-2.729-7.43-2.729c-3.329,0-5.936,1.034-7.821,3.103
	c-1.886,2.07-2.825,4.999-2.825,8.787c0,3.681,1.02,6.525,3.059,8.532c2.041,2.011,4.873,3.015,8.496,3.015
	C337.739,38.325,339.227,38.193,340.449,37.931"/>
<path fill="#004B88" d="M75.681,37.961c1.013-0.242,2.018-0.681,3.011-1.314v-5.278c-1.007,0.675-2.014,1.17-3.02,1.486
	c-1.006,0.317-2.1,0.476-3.282,0.476c-3.193,0-4.792-2.211-4.792-6.631c0-4.559,1.598-6.836,4.792-6.836
	c0.832,0,1.665,0.125,2.496,0.373c0.833,0.25,1.731,0.571,2.698,0.962l1.812-4.772c-2.067-1.025-4.402-1.537-7.006-1.537
	c-3.556,0-6.288,1.014-8.193,3.043c-1.906,2.029-2.859,4.964-2.859,8.806c0,7.725,3.504,11.588,10.509,11.588
	C73.389,38.325,74.667,38.204,75.681,37.961 M86.159,12.501c1.113,0,1.95-0.266,2.507-0.798c0.556-0.533,0.835-1.276,0.835-2.234
	c0-2.009-1.113-3.013-3.342-3.013c-2.228,0-3.341,1.004-3.341,3.013C82.818,11.491,83.932,12.501,86.159,12.501 M89.219,15.312
	h-6.14V37.92h6.14V15.312z M102.375,32.784c-0.49-0.417-0.734-1.065-0.734-1.94v-10.9h6.3v-4.632h-6.3v-4.813h-3.926l-1.771,4.773
	l-3.382,2.062v2.609h2.94v10.9c0,2.492,0.559,4.364,1.68,5.61c1.121,1.247,2.909,1.871,5.366,1.871c2.227,0,4.104-0.342,5.635-1.032
	v-4.589c-1.502,0.472-2.792,0.706-3.865,0.706C103.513,33.41,102.864,33.202,102.375,32.784 M114.987,12.501
	c1.114,0,1.951-0.266,2.507-0.798c0.557-0.533,0.835-1.276,0.835-2.234c0-2.009-1.113-3.013-3.342-3.013
	c-2.227,0-3.341,1.004-3.341,3.013C111.646,11.491,112.76,12.501,114.987,12.501 M118.046,15.312h-6.14V37.92h6.14V15.312z
	 M139.326,33.208h-10.509l10.146-13.891v-4.005h-16.789v4.713h9.805l-10.428,14.256v3.639h17.776L139.326,33.208L139.326,33.208z
	 M155.37,20.52c0.766,0.829,1.161,2.005,1.187,3.528h-8.615c0.106-1.523,0.529-2.7,1.268-3.528c0.738-0.83,1.757-1.244,3.059-1.244
	C153.571,19.276,154.605,19.691,155.37,20.52 M157.604,37.931c1.223-0.263,2.368-0.663,3.443-1.204v-4.772
	c-1.315,0.621-2.577,1.073-3.784,1.356c-1.208,0.283-2.49,0.424-3.844,0.424c-1.745,0-3.101-0.492-4.067-1.477
	c-0.967-0.983-1.483-2.353-1.55-4.104h14.515V25.16c0-3.208-0.886-5.722-2.658-7.542c-1.771-1.82-4.248-2.729-7.429-2.729
	c-3.328,0-5.934,1.034-7.821,3.103c-1.884,2.07-2.827,4.999-2.827,8.787c0,3.681,1.021,6.525,3.061,8.532
	c2.039,2.011,4.87,3.015,8.493,3.015C154.894,38.325,156.383,38.193,157.604,37.931 M187.254,23.179
	c0-2.683-0.679-4.735-2.033-6.158c-1.355-1.42-3.344-2.132-5.959-2.132c-1.529,0-2.896,0.279-4.097,0.839
	c-1.196,0.559-2.141,1.385-2.825,2.477h-0.342l-0.825-2.893h-4.691V37.92h6.14V27.283c0-2.668,0.381-4.579,1.145-5.731
	c0.769-1.153,2.004-1.729,3.725-1.729c1.261,0,2.182,0.408,2.756,1.223c0.578,0.817,0.865,2.04,0.865,3.671v13.204h6.143
	L187.254,23.179L187.254,23.179z M207.868,28.315c-0.391-0.81-0.993-1.523-1.812-2.143c-0.818-0.621-2.106-1.288-3.867-2.003
	c-1.973-0.796-3.25-1.396-3.836-1.801c-0.582-0.404-0.873-0.881-0.873-1.434c0-0.985,0.904-1.478,2.72-1.478
	c1.021,0,2.021,0.157,2.997,0.466c0.98,0.311,2.033,0.708,3.16,1.193l1.854-4.448c-2.562-1.187-5.199-1.78-7.912-1.78
	c-2.845,0-5.042,0.55-6.592,1.647c-1.551,1.099-2.325,2.653-2.325,4.662c0,1.171,0.187,2.16,0.556,2.962
	c0.369,0.802,0.959,1.513,1.771,2.133s2.083,1.294,3.813,2.022c1.209,0.513,2.176,0.96,2.897,1.345
	c0.728,0.385,1.235,0.729,1.53,1.031c0.296,0.303,0.443,0.697,0.443,1.182c0,1.296-1.113,1.942-3.342,1.942
	c-1.09,0-2.347-0.182-3.775-0.546c-1.43-0.364-2.715-0.816-3.854-1.355v5.097c1.009,0.431,2.088,0.758,3.242,0.979
	c1.151,0.223,2.548,0.335,4.187,0.335c3.193,0,5.594-0.606,7.195-1.82c1.605-1.213,2.406-2.979,2.406-5.299
	C208.451,30.089,208.255,29.125,207.868,28.315"/>
<path fill="#FFFFFF" d="M16.115,27.94c-0.133-0.361-0.238-0.823-0.314-1.385c-0.076-0.562-0.133-1.176-0.171-1.843
	c-0.039-0.666-0.057-1.313-0.057-1.941c0-0.629,0-1.181,0-1.656c0-0.495,0-0.838,0-1.028c0-0.096-0.01-0.219-0.029-0.371
	c-0.019-0.152-0.104-0.229-0.257-0.229c-0.19,0-0.453,0.176-0.785,0.528c-0.333,0.353-0.695,0.804-1.085,1.356
	c-0.391,0.552-0.79,1.161-1.2,1.827c-0.409,0.667-0.795,1.314-1.156,1.942c-0.362,0.628-0.676,1.19-0.942,1.685
	c-0.267,0.496-0.448,0.857-0.543,1.086c-0.095,0.209-0.224,0.404-0.385,0.585c-0.162,0.181-0.376,0.271-0.643,0.271
	c-0.19,0-0.333-0.062-0.429-0.186c-0.095-0.124-0.143-0.271-0.143-0.442c0-0.286,0.043-0.733,0.128-1.343
	c0.086-0.609,0.19-1.299,0.314-2.07s0.271-1.575,0.442-2.413c0.171-0.838,0.343-1.633,0.514-2.385
	c0.171-0.752,0.343-1.414,0.514-1.985c0.171-0.57,0.314-0.971,0.428-1.199c0.209-0.381,0.533-0.666,0.971-0.856
	s0.856-0.286,1.256-0.286c0.209,0,0.361,0.062,0.457,0.187c0.095,0.124,0.143,0.29,0.143,0.499c0,0.19-0.038,0.419-0.114,0.686
	c-0.076,0.267-0.171,0.538-0.285,0.814c-0.114,0.275-0.229,0.547-0.343,0.813c-0.114,0.266-0.21,0.495-0.286,0.686
	c-0.21,0.514-0.381,1.047-0.514,1.6c-0.133,0.552-0.248,1.104-0.343,1.656c0.209-0.305,0.495-0.733,0.857-1.285
	c0.361-0.552,0.757-1.095,1.185-1.628c0.428-0.533,0.871-0.995,1.328-1.386c0.457-0.39,0.875-0.585,1.256-0.585
	c0.267,0,0.476,0.086,0.628,0.257c0.152,0.172,0.271,0.381,0.357,0.629c0.086,0.247,0.143,0.504,0.171,0.771
	c0.029,0.267,0.043,0.495,0.043,0.686c0,0.553-0.01,1.104-0.029,1.656c-0.019,0.553-0.028,1.104-0.028,1.656
	c0,0.286,0,0.591,0,0.914c0,0.305,0.038,0.6,0.114,0.886c0,0.019,0.009,0.057,0.028,0.114s0.047,0.085,0.086,0.085
	c0.057,0,0.128-0.071,0.214-0.214c0.086-0.143,0.147-0.242,0.186-0.3c0.342-0.571,0.709-1.128,1.099-1.671
	c0.39-0.542,0.776-1.09,1.157-1.642c0.229-0.324,0.495-0.704,0.8-1.143c0.304-0.438,0.633-0.856,0.985-1.257
	c0.352-0.399,0.732-0.742,1.142-1.028c0.409-0.285,0.833-0.428,1.271-0.428c0.304,0,0.571,0.076,0.8,0.229
	c0.228,0.152,0.414,0.343,0.557,0.571c0.143,0.229,0.247,0.48,0.314,0.757c0.067,0.275,0.1,0.547,0.1,0.813
	c0,1.104-0.067,2.204-0.2,3.299c-0.134,1.095-0.2,2.194-0.2,3.298c0,0.134,0.004,0.291,0.015,0.472
	c0.009,0.181,0.038,0.348,0.085,0.5c0.047,0.152,0.124,0.285,0.229,0.399c0.104,0.114,0.252,0.172,0.443,0.172
	c0.323,0,0.689-0.129,1.099-0.386c0.409-0.257,0.814-0.566,1.214-0.929c0.4-0.361,0.771-0.737,1.114-1.128
	c0.343-0.39,0.609-0.709,0.8-0.956c0.095-0.134,0.219-0.29,0.371-0.472c0.152-0.181,0.324-0.271,0.514-0.271
	c0.171,0,0.281,0.067,0.329,0.2c0.047,0.134,0.071,0.267,0.071,0.399c0,0.096-0.034,0.195-0.1,0.3
	c-0.067,0.105-0.128,0.196-0.186,0.271c-0.286,0.381-0.662,0.828-1.128,1.343c-0.467,0.514-0.981,1.004-1.542,1.471
	c-0.561,0.467-1.133,0.861-1.713,1.185c-0.581,0.324-1.119,0.486-1.614,0.486c-0.476,0-0.842-0.134-1.099-0.4
	c-0.257-0.267-0.453-0.6-0.585-0.999c-0.134-0.4-0.214-0.818-0.243-1.257c-0.028-0.438-0.042-0.828-0.042-1.171
	c0-0.857,0.042-1.714,0.128-2.57c0.085-0.856,0.128-1.723,0.128-2.599c0-0.076-0.005-0.181-0.014-0.314
	c-0.01-0.133-0.029-0.262-0.057-0.386c-0.029-0.123-0.076-0.232-0.143-0.328c-0.067-0.095-0.157-0.143-0.271-0.143
	c-0.229,0-0.514,0.176-0.857,0.528c-0.343,0.352-0.709,0.804-1.1,1.356c-0.39,0.552-0.79,1.166-1.199,1.842
	c-0.41,0.676-0.795,1.328-1.157,1.956c-0.362,0.629-0.681,1.195-0.957,1.699c-0.276,0.505-0.491,0.871-0.643,1.1
	c-0.096,0.152-0.2,0.276-0.314,0.371c-0.114,0.096-0.267,0.144-0.457,0.144S16.248,28.302,16.115,27.94z"/>
<path fill="#FFFFFF" d="M32.793,40.178c-0.305-0.182-0.552-0.414-0.743-0.699c-0.19-0.286-0.328-0.614-0.414-0.985
	c-0.085-0.372-0.128-0.748-0.128-1.129c0-0.952,0.252-1.895,0.757-2.827c0.504-0.933,1.132-1.813,1.885-2.642
	c0.752-0.828,1.561-1.595,2.428-2.299c0.866-0.704,1.67-1.295,2.413-1.771c0.019-0.267,0.029-0.533,0.029-0.8
	c0-0.285,0-0.562,0-0.828c0-1.466-0.029-2.941-0.086-4.427c-0.229,0.4-0.614,0.929-1.157,1.585
	c-0.542,0.657-1.138,1.305-1.785,1.942c-0.647,0.638-1.299,1.189-1.957,1.656c-0.657,0.467-1.224,0.699-1.699,0.699
	c-0.324,0-0.585-0.071-0.785-0.214c-0.2-0.143-0.357-0.323-0.471-0.543c-0.114-0.218-0.19-0.466-0.229-0.742
	c-0.039-0.275-0.057-0.537-0.057-0.785c0-0.856,0.1-1.723,0.3-2.599c0.2-0.876,0.433-1.724,0.7-2.542
	c0.057-0.19,0.109-0.376,0.157-0.557c0.047-0.181,0.119-0.357,0.214-0.528c0.114-0.229,0.257-0.419,0.429-0.571
	c0.172-0.152,0.39-0.229,0.657-0.229c0.323,0,0.609,0.114,0.857,0.343c0.247,0.229,0.371,0.505,0.371,0.828
	c0,0.247-0.076,0.538-0.229,0.871s-0.276,0.614-0.371,0.843c-0.096,0.247-0.214,0.57-0.357,0.971
	c-0.143,0.399-0.276,0.818-0.4,1.257c-0.124,0.438-0.229,0.856-0.314,1.256s-0.128,0.733-0.128,1c0,0.096,0.009,0.219,0.029,0.371
	c0.019,0.152,0.104,0.229,0.257,0.229c0.114,0,0.267-0.066,0.457-0.2c0.19-0.133,0.385-0.285,0.585-0.457
	c0.2-0.171,0.39-0.343,0.571-0.514c0.181-0.172,0.309-0.295,0.385-0.371c0.781-0.8,1.5-1.643,2.156-2.527
	c0.657-0.886,1.328-1.766,2.013-2.642c0.133-0.152,0.281-0.324,0.443-0.515c0.162-0.189,0.357-0.285,0.585-0.285
	c0.19,0,0.381,0.066,0.571,0.199c0.114,0.077,0.204,0.268,0.271,0.571c0.067,0.305,0.114,0.629,0.143,0.972
	c0.028,0.343,0.043,0.676,0.043,0.999c0,0.324,0,0.562,0,0.714c0,1.257-0.024,2.557-0.072,3.898
	c-0.047,1.343-0.171,2.675-0.371,3.998c-0.2,1.323-0.495,2.613-0.885,3.87c-0.391,1.257-0.938,2.428-1.642,3.513
	c-0.229,0.361-0.5,0.719-0.814,1.071s-0.652,0.661-1.014,0.928c-0.362,0.267-0.752,0.485-1.171,0.657
	c-0.419,0.171-0.857,0.257-1.314,0.257C33.469,40.449,33.098,40.358,32.793,40.178z M36.877,30.711
	c-0.705,0.608-1.361,1.271-1.971,1.984c-0.61,0.713-1.119,1.471-1.528,2.271c-0.41,0.8-0.614,1.618-0.614,2.456
	c0,0.171,0.014,0.366,0.042,0.585c0.029,0.219,0.086,0.419,0.171,0.601c0.086,0.181,0.2,0.332,0.343,0.456s0.329,0.187,0.557,0.187
	s0.452-0.058,0.671-0.172c0.219-0.114,0.428-0.257,0.628-0.429c0.2-0.171,0.385-0.356,0.557-0.557
	c0.172-0.201,0.324-0.386,0.457-0.557c0.381-0.495,0.719-1.1,1.014-1.813c0.295-0.714,0.552-1.462,0.771-2.242
	c0.219-0.78,0.404-1.557,0.557-2.327c0.152-0.771,0.257-1.471,0.314-2.1C38.238,29.549,37.582,30.101,36.877,30.711z"/>
</svg>
