<?xml version="1.0" encoding="utf-8"?>
<!-- Generator: Adobe Illustrator 15.0.0, SVG Export Plug-In . SVG Version: 6.00 Build 0)  -->
<!DOCTYPE svg PUBLIC "-//W3C//DTD SVG 1.1//EN" "http://www.w3.org/Graphics/SVG/1.1/DTD/svg11.dtd" [
	<!ENTITY ns_extend "http://ns.adobe.com/Extensibility/1.0/">
	<!ENTITY ns_ai "http://ns.adobe.com/AdobeIllustrator/10.0/">
	<!ENTITY ns_graphs "http://ns.adobe.com/Graphs/1.0/">
	<!ENTITY ns_vars "http://ns.adobe.com/Variables/1.0/">
	<!ENTITY ns_imrep "http://ns.adobe.com/ImageReplacement/1.0/">
	<!ENTITY ns_sfw "http://ns.adobe.com/SaveForWeb/1.0/">
	<!ENTITY ns_custom "http://ns.adobe.com/GenericCustomNamespace/1.0/">
	<!ENTITY ns_adobe_xpath "http://ns.adobe.com/XPath/1.0/">
]>
<svg version="1.1" id="Ebene_1" xmlns:x="&ns_extend;" xmlns:i="&ns_ai;" xmlns:graph="&ns_graphs;"
	 xmlns="http://www.w3.org/2000/svg" xmlns:xlink="http://www.w3.org/1999/xlink" x="0px" y="0px" width="64px" height="64px"
	 viewBox="0 0 64 64" enable-background="new 0 0 64 64" xml:space="preserve">
<metadata>
	<sfw  xmlns="&ns_sfw;">
		<slices></slices>
		<sliceSourceBounds  x="142.499" y="43.5" width="64.002" height="64" bottomLeftOrigin="true"></sliceSourceBounds>
	</sfw>
</metadata>
<g>
	<path fill="#FFFFFF" d="M32,0C23.452,0,15.416,3.33,9.373,9.374C3.328,15.417-0.001,23.453-0.001,32s3.329,16.583,9.374,22.626
		C15.416,60.671,23.452,64,32,64c8.547,0,16.583-3.33,22.627-9.374c6.045-6.044,9.374-14.079,9.374-22.626
		s-3.329-16.583-9.374-22.626C48.583,3.329,40.547,0,32,0z M51.799,51.798C46.51,57.087,39.479,60,32,60
		c-7.479,0-14.511-2.913-19.799-8.203C6.912,46.509,3.999,39.479,3.999,32c0-7.479,2.913-14.509,8.202-19.798
		C17.489,6.913,24.521,4,32,4c7.479,0,14.51,2.913,19.799,8.203c5.289,5.288,8.202,12.319,8.202,19.797
		C60.001,39.479,57.088,46.509,51.799,51.798z"/>
	<path fill="#FFFFFF" d="M50,30H34V14c0-1.104-0.896-2-2-2c-1.104,0-2,0.896-2,2v16H14c-1.104,0-2,0.896-2,2c0,1.104,0.896,2,2,2h16
		v16c0,1.104,0.896,2,2,2c1.104,0,2-0.896,2-2V34h16c1.104,0,2-0.896,2-2C52,30.896,51.104,30,50,30z"/>
</g>
</svg>
