<?xml version="1.0" encoding="UTF-8"?>
<svg version="1.1" id="Cross" xmlns="http://www.w3.org/2000/svg" xmlns:xlink="http://www.w3.org/1999/xlink" x="0px" y="0px" viewBox="0 0 612 792" enable-background="new 0 0 612 792" xml:space="preserve"><path fill="#D9534F" d="M447,544.4c-14.4,14.4-37.6,14.4-51.9,0L306,451.7l-89.1,92.7c-14.4,14.4-37.6,14.4-51.9,0c-14.4-14.4-14.4-37.6,0-51.9l92.4-96.4L165,299.6c-14.4-14.4-14.4-37.6,0-51.9s37.6-14.4,51.9,0l89.2,92.7l89.1-92.7c14.4-14.4,37.6-14.4,51.9,0c14.4,14.4,14.4,37.6,0,51.9L354.7,396l92.4,96.4C461.4,506.8,461.4,530,447,544.4z"/></svg>